<svg width="30" height="30" viewBox="0 0 30 30" fill="none" xmlns="http://www.w3.org/2000/svg">
<path d="M24.94 7.08999C22.56 5.17624 18.795 4.85249 18.635 4.83874C18.3837 4.81749 18.145 4.95999 18.0425 5.18999C18.035 5.20499 17.9525 5.39374 17.8612 5.68749C19.435 5.95249 21.3687 6.48749 23.1187 7.57374C23.3987 7.74749 23.485 8.11624 23.3112 8.39749C23.1987 8.57999 23.0025 8.67999 22.8025 8.67999C22.695 8.67999 22.5862 8.65124 22.4875 8.58999C19.48 6.72499 15.7225 6.63124 15 6.63124C14.2775 6.63124 10.5187 6.72499 7.51375 8.58999C7.2325 8.76499 6.865 8.67749 6.69 8.39749C6.515 8.11624 6.6025 7.74874 6.8825 7.57374C8.6325 6.48874 10.565 5.95249 12.14 5.68749C12.0475 5.39249 11.965 5.20499 11.9587 5.18999C11.855 4.95999 11.6175 4.81499 11.365 4.83999C11.2062 4.85249 7.44125 5.17624 5.02875 7.11749C3.76875 8.28124 1.25 15.0912 1.25 20.9787C1.25 21.0825 1.2775 21.185 1.32875 21.275C3.0675 24.3287 7.81 25.1287 8.89125 25.1637C8.8975 25.1637 8.90375 25.1637 8.91 25.1637C9.10125 25.1637 9.28125 25.0725 9.39375 24.9175L10.4875 23.415C7.53875 22.6525 6.0325 21.3587 5.945 21.2825C5.6975 21.0637 5.67375 20.6862 5.8925 20.4387C6.11125 20.1912 6.4875 20.1675 6.735 20.385C6.77125 20.4175 9.545 22.7712 15 22.7712C20.465 22.7712 23.2387 20.4075 23.2662 20.3837C23.5137 20.1687 23.8912 20.1912 24.1087 20.44C24.3262 20.6875 24.3025 21.0637 24.0562 21.2812C23.9687 21.3587 22.4625 22.6512 19.5137 23.4137L20.6075 24.9162C20.72 25.0712 20.9 25.1625 21.0912 25.1625C21.0975 25.1625 21.1037 25.1625 21.11 25.1625C22.1912 25.1287 26.9337 24.3287 28.6725 21.2737C28.7225 21.1837 28.75 21.0825 28.75 20.9787C28.75 15.0912 26.2312 8.28124 24.94 7.08999ZM11.1137 18.5875C9.95875 18.5875 9.02125 17.5162 9.02125 16.1962C9.02125 14.8762 9.9575 13.805 11.1137 13.805C12.27 13.805 13.2062 14.8762 13.2062 16.1962C13.2062 17.5162 12.27 18.5875 11.1137 18.5875ZM18.8862 18.5875C17.7312 18.5875 16.7937 17.5162 16.7937 16.1962C16.7937 14.8762 17.73 13.805 18.8862 13.805C20.0412 13.805 20.9788 14.8762 20.9788 16.1962C20.9788 17.5162 20.0412 18.5875 18.8862 18.5875Z" fill="white"/>
</svg>
