<svg width="110" height="97" viewBox="0 0 110 97" fill="none" xmlns="http://www.w3.org/2000/svg">
<path fill-rule="evenodd" clip-rule="evenodd" d="M52.4642 8.17168C49.5056 8.82503 46.4102 11.2355 45.0361 13.9562C43.9817 16.0442 43.5532 18.7027 43.9164 20.9029L44.2008 22.6261L43.1981 22.4111C42.6464 22.2927 41.8471 22.1879 41.4214 22.178C40.9958 22.1684 40.6477 22.0824 40.6477 21.9875C40.6477 21.8925 39.4768 21.3984 38.0453 20.8896C32.9851 19.0911 27.9946 16.1728 24.5105 12.9742C23.5125 12.0582 22.5762 11.3087 22.4297 11.3087C21.912 11.3087 17.6955 14.4918 15.9599 16.1928C14.9929 17.1406 14.2015 18.1331 14.2015 18.3986C14.2015 18.6638 13.9297 18.9674 13.5977 19.0728C12.8817 19.3005 12 20.2521 10.7899 22.1027C9.91777 23.4365 9.90877 23.4872 10.1012 25.9078C10.2084 27.257 10.5308 29.4468 10.8181 30.7735C11.7594 35.1273 14.206 40.5283 15.375 40.8347C15.7821 40.9412 15.8386 41.0429 15.5804 41.2028C15.178 41.4519 16.5741 43.348 18.548 45.2339C20.5725 47.168 20.7239 47.2243 22.4209 46.6759C23.2388 46.4118 24.06 46.0036 24.246 45.7691C24.432 45.5346 24.773 45.4154 25.0037 45.5039C25.2344 45.5927 25.8252 45.5496 26.317 45.4083C31.793 43.835 41.1367 42.6805 50.4948 42.4212C55.5755 42.2806 57.2124 42.1461 57.5638 41.8406C57.9579 41.4981 58.0429 41.499 58.1757 41.8454C58.293 42.1521 59.2223 42.2935 62.0788 42.4398C72.4375 42.9711 82.0901 44.5405 87.5237 46.5772C88.9563 47.1141 89.1102 47.1226 89.755 46.6992C91.7979 45.3582 95.0043 41.3166 96.7006 37.9442C97.7885 35.7812 98.8996 32.4897 98.6036 32.3065C98.4564 32.2155 98.6117 31.5861 98.9564 30.8752C99.4265 29.9059 99.5002 29.493 99.2692 29.126C99.0447 28.7692 99.063 28.5728 99.3404 28.3625C99.5658 28.1917 99.7889 27.1573 99.9031 25.7548C100.092 23.4306 100.092 23.43 99.0892 21.9173C97.7331 19.8713 93.3126 15.2547 92.7094 15.2547C92.4424 15.2547 92.0938 14.9692 91.9346 14.6206C91.7757 14.2716 90.7488 13.3674 89.6526 12.6112L87.6599 11.236L85.8877 12.848C83.5239 14.9974 79.6906 17.5429 76.5494 19.0488C73.8091 20.3626 68.8119 22.1185 66.9362 22.4269L65.7936 22.6146L66.0769 20.897C66.8771 16.0501 64.0817 10.8696 59.5928 8.88083C57.8685 8.11672 54.3137 7.76327 52.4642 8.17168ZM58.3681 11.8702C60.9132 13.1713 62.6679 15.615 63.0441 18.3828C63.4092 21.0731 61.749 24.4576 59.3483 25.9165C58.6666 26.3309 58.1048 26.7737 58.1 26.9008C58.095 27.0276 59.1356 27.0544 60.4121 26.9603C63.9998 26.6959 65.1246 26.5186 65.1246 26.217C65.1246 26.0558 65.514 26.0129 66.055 26.1147C67.0411 26.2999 70.0875 25.7987 73.918 24.8207C78.1257 23.7462 83.5205 21.512 86.5818 19.5759L87.6717 18.8867L90.132 21.2986C91.485 22.625 92.7556 23.7104 92.9556 23.7104C93.1596 23.7104 93.2496 23.892 93.1607 24.1242C93.0735 24.3517 93.1233 24.613 93.2713 24.7046C93.6728 24.9532 93.5965 27.3492 93.1123 29.6816C92.5283 32.4968 91.6704 35.0493 90.56 37.2765C90.0474 38.3044 89.6892 39.2064 89.7638 39.2813C89.8383 39.356 89.5421 39.8002 89.1054 40.2684C88.3379 41.0917 88.2606 41.1117 86.7762 40.873C78.754 39.5829 70.0253 39.0987 54.8556 39.1021C39.8777 39.1057 32.1408 39.5302 24.1892 40.7853C21.2207 41.2538 21.5496 41.4719 19.6978 37.8033C18.4377 35.3066 17.2265 31.8031 16.8717 29.6294C16.7578 28.9318 16.5819 28.2977 16.4807 28.2202C16.3797 28.1426 16.3445 27.3309 16.403 26.4163L16.5091 24.7536L19.0786 22.0926C22.2153 18.8445 22.4167 18.7213 23.4228 19.4338C26.2812 21.4581 33.6794 24.341 38.7189 25.3943C43.8407 26.465 51.9119 27.385 51.8925 26.896C51.8877 26.7717 51.3258 26.3309 50.6441 25.9165C49.081 24.9667 47.7953 23.2031 47.2196 21.2194C46.0222 17.093 48.816 12.3874 53.1203 11.2808C54.4699 10.9339 57.1176 11.2312 58.3681 11.8702ZM51.4302 15.5577C51.1086 15.8799 51.5062 18.0733 51.8863 18.0733C51.9952 18.0733 52.2773 17.4707 52.5134 16.7345L52.943 15.3957L53.3113 16.1708C53.769 17.1333 53.9066 17.1361 54.4775 16.1939L54.9329 15.4419L55.4216 16.3889L55.9106 17.336L56.4159 16.3658C56.9547 15.3311 56.9218 15.3041 57.6158 17.3458L57.9911 18.4504L58.3529 17.1567C58.5516 16.4453 58.6301 15.726 58.5268 15.5589C58.2745 15.1499 51.8385 15.1488 51.4302 15.5577ZM57.5387 21.3147C57.0067 22.9554 56.9502 22.9957 56.3869 22.136L55.8746 21.3536L55.5311 22.1092C55.1026 23.0509 54.7937 23.0647 54.3824 22.1602C54.2062 21.7727 53.9581 21.4556 53.8312 21.4556C53.704 21.4556 53.5209 21.7727 53.4238 22.1602C53.1686 23.178 52.817 23.0281 52.431 21.7374C52.2456 21.1174 52.0084 20.61 51.904 20.61C51.5329 20.61 51.0572 22.6955 51.359 22.9988C51.5174 23.1577 52.9576 23.3305 54.5599 23.3829C58.5434 23.5134 59.161 23.1219 58.2663 21.0328L57.9042 20.1872L57.5387 21.3147ZM85.0122 26.9851C83.9729 27.305 83.5196 27.637 83.0625 28.4135C82.4739 29.413 82.4612 29.418 82.001 28.8487C81.4492 28.1663 80.6862 28.046 78.7301 28.3337C77.4004 28.5294 77.2696 28.617 77.109 29.4217C77.0122 29.9073 77.0611 30.3752 77.219 30.473C77.3757 30.57 77.5647 31.72 77.6393 33.0283L77.7749 35.4075L78.79 35.3731C80.6553 35.31 82.2753 33.4799 82.3605 31.3397C82.403 30.2724 82.43 30.236 82.7429 30.8262C82.9288 31.1771 83.6266 31.6543 84.3009 31.8922C85.2119 32.2135 85.5462 32.4917 85.6168 32.9878C85.7321 33.7936 85.2665 34.129 84.0252 34.1349C83.2186 34.1386 83.1035 34.2257 83.1812 34.7733C83.2563 35.3027 83.4724 35.4219 84.49 35.4952C86.3455 35.629 87.0694 35.0242 87.0694 33.3409C87.0694 31.731 86.7154 31.2118 85.3149 30.7673C84.0911 30.3792 83.8716 30.1168 84.1181 29.3383C84.2365 28.9645 84.7235 28.6565 85.5431 28.4369C86.6386 28.1432 86.788 28.0088 86.788 27.3162C86.788 26.4197 86.8257 26.4267 85.0122 26.9851ZM23.3612 27.7193C22.9113 28.3625 22.8148 29.6788 23.1544 30.5359C23.2596 30.802 23.9557 31.4071 24.7007 31.8806C25.7523 32.5486 26.0356 32.8821 25.9664 33.3697C25.8899 33.9083 25.7045 33.9982 24.6692 33.9982C23.5463 33.9982 23.4673 34.0478 23.5438 34.7029C23.6158 35.317 23.7829 35.4188 24.8453 35.4952C26.6537 35.6257 27.4246 35.0154 27.4246 33.4531C27.4246 32.4255 27.2823 32.0962 26.582 31.506C26.1186 31.1154 25.4921 30.7171 25.1899 30.621C24.4953 30.4003 24.1779 29.4476 24.6208 28.9132C24.8616 28.6224 25.2709 28.5558 26.0508 28.681C27.0274 28.8374 27.1433 28.7935 27.1433 28.2661C27.1433 27.5107 26.3536 27.0927 24.9269 27.0927C24.0803 27.0927 23.6898 27.2489 23.3612 27.7193ZM27.823 28.3213C27.7423 28.5322 27.7358 29.0714 27.8087 29.5192C27.8815 29.9674 27.9516 31.5072 27.9642 32.9413C27.987 35.5115 27.9969 35.5484 28.6746 35.5484C29.2815 35.5484 29.3718 35.4089 29.4483 34.3539C29.5316 33.2025 29.5746 33.1529 30.637 32.9813C32.3343 32.707 32.9285 31.3888 32.2091 29.4933C31.7359 28.2458 28.2124 27.3047 27.823 28.3213ZM33.0022 30.8104C32.9519 32.0988 32.9741 33.66 33.0515 34.2801L33.1922 35.4075L34.8332 35.4926C36.2864 35.5682 36.4636 35.5197 36.3801 35.0698C36.3266 34.7823 35.8936 34.4461 35.3816 34.295L34.4773 34.0278L34.3974 31.3355C34.3226 28.8146 34.2784 28.6373 33.7056 28.5556C33.1255 28.473 33.0889 28.5897 33.0022 30.8104ZM75.11 29.1362C75.0414 29.3301 74.9502 30.3129 74.908 31.3206L74.8309 33.1526L74.1276 31.238C73.4563 29.411 73.3857 29.3273 72.5802 29.4059L71.7362 29.4885L71.6563 32.5185C71.5809 35.3813 71.6073 35.5484 72.1357 35.5484C72.6289 35.5484 72.7051 35.3289 72.7782 33.6972L72.8615 31.846L73.5542 33.6267C74.3133 35.5777 74.5234 35.8196 75.464 35.8261C76.0686 35.83 76.0992 35.7195 76.1499 33.364C76.1788 32.0077 76.2149 30.4223 76.2301 29.8408C76.252 28.9972 76.1544 28.7839 75.7464 28.7839C75.4654 28.7839 75.179 28.9426 75.11 29.1362ZM36.8496 32.2259V35.4075L37.6326 35.4977L38.4159 35.5876L38.336 32.3973C38.2569 29.2281 38.2515 29.2061 37.553 29.1255L36.8496 29.0443V32.2259ZM39.5224 32.5889C39.5224 35.3604 39.5581 35.5484 40.0851 35.5484C40.5811 35.5484 40.6492 35.3568 40.659 33.9278L40.6703 32.3071L41.292 33.7172C42.1752 35.7201 42.2745 35.8303 43.1964 35.8303H44.0239V32.8708C44.0239 30.0993 43.9881 29.9113 43.4612 29.9113C42.9781 29.9113 42.8979 30.1007 42.8943 31.2501C42.8872 33.4097 42.5249 33.4757 41.7706 31.4545C41.1564 29.8093 41.0121 29.6294 40.3059 29.6294H39.5224V32.5889ZM67.2029 29.8451C67.0304 29.9589 66.3563 31.1303 65.7044 32.448C64.4466 34.9915 63.9992 35.6524 63.9992 34.9678C63.9992 34.691 63.7002 34.5574 63.0849 34.5591L62.1705 34.5619L62.2498 32.3775C62.3278 30.2382 62.3154 30.1932 61.6548 30.1932C61.0206 30.1932 60.9717 30.3112 60.8395 32.1605C60.7624 33.2428 60.7601 34.4478 60.8347 34.8382C60.9672 35.5338 61.022 35.5484 63.4655 35.5484H65.961L66.3794 34.5453C66.7769 33.5926 66.8579 33.5467 67.9996 33.6293C69.0898 33.7082 69.2148 33.7947 69.3447 34.5619C69.4595 35.2387 69.6475 35.4258 70.2861 35.4991C70.9456 35.5749 71.0581 35.5016 70.9349 35.0763C69.3231 29.5254 69.3712 29.6292 68.4132 29.6337C67.9197 29.6362 67.3751 29.7312 67.2029 29.8451ZM80.9093 30.2867C81.5221 31.634 80.17 34.3221 79.1858 33.7127C78.8795 33.523 78.8024 30.1134 79.0981 29.8174C79.5398 29.3746 80.6221 29.6551 80.9093 30.2867ZM30.666 30.3036C31.1209 30.6368 31.1451 30.7639 30.8261 31.1492C30.399 31.6644 30.2513 31.6915 29.7156 31.3516C29.4762 31.1994 29.4044 30.886 29.5234 30.5102C29.746 29.8079 29.941 29.7726 30.666 30.3036ZM44.4903 30.63C44.5823 30.8705 45.0069 31.1371 45.434 31.2225C46.2656 31.3894 46.5461 32.2084 46.5529 34.4915C46.5557 35.43 46.6347 35.5484 47.2593 35.5484C48.0451 35.5484 48.0499 35.5318 47.9705 33.1019L47.9134 31.36L48.85 31.2698C49.4735 31.2098 49.8181 31.0148 49.88 30.6864C49.9639 30.2433 49.6867 30.1932 47.1482 30.1932C44.7118 30.1932 44.346 30.2532 44.4903 30.63ZM50.4154 30.4045C50.3538 30.5207 50.2745 31.7177 50.2396 33.0641L50.1763 35.5121L51.2499 35.6009C51.8404 35.6496 52.8614 35.6448 53.5192 35.5904C54.4715 35.5118 54.7149 35.3827 54.7149 34.9562C54.7149 34.5084 54.5047 34.421 53.4283 34.421C52.3601 34.421 52.1575 34.3381 52.2351 33.9334C52.3097 33.5456 52.5728 33.4635 53.5214 33.5323C54.5129 33.6039 54.6851 33.5433 54.543 33.1727C54.4473 32.9229 53.8906 32.6495 53.2775 32.5514C51.6924 32.2975 51.8182 31.6024 53.4489 31.6024C54.6116 31.6024 54.7149 31.5449 54.7149 30.8978C54.7149 30.2092 54.6668 30.1932 52.6214 30.1932C51.4699 30.1932 50.4773 30.2884 50.4154 30.4045ZM55.5451 30.2636C55.5375 30.3025 55.4734 31.3488 55.4025 32.5889C55.3316 33.8291 55.212 35.0106 55.1366 35.2147C55.0401 35.4757 55.2261 35.5591 55.7643 35.4966C56.3878 35.4238 56.5864 35.2009 56.8413 34.286L57.1539 33.1645L57.9411 34.3565C58.5654 35.3012 58.8971 35.5484 59.5425 35.5484C60.3477 35.5484 60.3516 35.5403 59.9234 34.7733C59.6854 34.3469 59.3444 33.7916 59.1655 33.5394C58.9063 33.1732 58.964 32.9229 59.4505 32.3034C60.2036 31.344 60.2211 30.8628 59.5163 30.4849C59.0597 30.2402 55.5873 30.0466 55.5451 30.2636ZM58.0376 31.7766C57.7872 32.0275 57.4436 32.147 57.274 32.0418C56.7152 31.696 56.9524 31.3206 57.7292 31.3206C58.4328 31.3206 58.457 31.3564 58.0376 31.7766ZM68.5007 31.9009C68.5007 32.0469 68.2424 32.1661 67.9271 32.1661C67.4502 32.1661 67.4144 32.0996 67.716 31.773C68.0902 31.3674 68.5007 31.4342 68.5007 31.9009Z" fill="white"/>
<path d="M56.7862 60L54.977 57.5465L53.1065 60H50.5L53.6738 55.9703L50.6073 52H53.2905L55.0383 54.3346L56.8322 52H59.3773L56.3109 55.9108L59.5 60H56.7862Z" fill="white"/>
<path fill-rule="evenodd" clip-rule="evenodd" d="M10.8162 65.112C10.0519 65.2987 9.64007 65.5747 9.1453 66.2319C8.73137 66.7818 8.68898 66.964 8.69291 68.1764C8.69635 69.225 8.77442 69.6616 9.05397 70.1972C10.061 72.1264 12.1503 72.6112 13.513 71.2318C14.2585 70.4772 14.5392 69.8099 14.6256 68.5861C14.7222 67.22 14.4809 66.4473 13.7567 65.8038C12.9303 65.0692 11.9424 64.8368 10.8162 65.112ZM1.44955 68.4312C0.252796 68.981 -0.232157 70.226 0.104347 71.8855C0.259342 72.6498 0.42694 72.9559 0.993892 73.5092C1.88245 74.3765 2.60342 74.5397 3.59198 74.0972C5.27795 73.3422 5.98058 70.9276 4.99283 69.2834C4.62048 68.6638 3.54845 68.1131 2.71455 68.1131C2.39949 68.1131 1.83024 68.2562 1.44955 68.4312ZM19.2573 68.4678C18.3116 68.9684 17.9347 69.6932 17.9394 71.0023C17.9517 74.4098 21.4336 75.5852 22.9613 72.6978C23.3865 71.894 23.3612 69.9318 22.9176 69.3299C22.0236 68.1164 20.5683 67.7735 19.2573 68.4678ZM47.2265 73.2829C46.6929 73.5553 46.397 73.8548 46.1279 74.3949C45.6739 75.3064 45.6662 75.7579 46.0898 76.6434C46.4456 77.3874 47.2139 77.8995 48.8342 78.4723C49.9591 78.8701 50.2905 79.2309 50.0825 79.8318C49.8395 80.5343 48.9787 80.6789 47.5594 80.2559L46.4281 79.9186L46.1854 80.6398L45.9426 81.3609L46.4649 81.6388C47.255 82.0592 49.6602 82.1409 50.5959 81.7793C51.6776 81.361 52.2246 80.5566 52.2246 79.3842C52.2246 77.872 51.5694 77.2497 48.9903 76.3124C47.7571 75.8641 47.5484 74.9835 48.5735 74.5536C49.0754 74.3432 49.3908 74.3875 51.1403 74.9135C51.2855 74.957 51.4523 74.7243 51.6104 74.2577C51.8169 73.6479 51.8202 73.5117 51.6308 73.3886C50.7133 72.7924 48.301 72.7346 47.2265 73.2829ZM105.052 73.2258C103.256 74.0768 103.071 76.6405 104.736 77.622C105.111 77.843 105.859 78.1866 106.399 78.3854C106.939 78.5842 107.52 78.8806 107.689 79.0439C108.303 79.6365 107.63 80.5309 106.57 80.5309C106.357 80.5309 105.738 80.391 105.195 80.2197L104.207 79.9085L103.963 80.6347L103.718 81.3609L104.24 81.6388C105.03 82.0592 107.436 82.1409 108.371 81.7793C109.453 81.361 110 80.5566 110 79.3842C110 77.872 109.345 77.2497 106.766 76.3124C105.588 75.8843 105.326 75.0165 106.246 74.5921C106.832 74.3222 107.336 74.3538 108.289 74.72L109.117 75.0389L109.271 74.6298C109.644 73.6366 109.63 73.4791 109.151 73.2463C108.898 73.1236 108.028 72.9948 107.218 72.9605C106.004 72.9089 105.623 72.9556 105.052 73.2258ZM28.2668 76.3478C28.1565 78.1473 28.0228 80.1229 27.9696 80.738L27.8727 81.8563H28.8531H29.8335L29.9403 79.8423C29.9993 78.7346 30.0529 77.2249 30.0597 76.4875L30.0721 75.1467L30.5528 76.9691C30.8173 77.9714 31.2597 79.4809 31.536 80.3239L32.0384 81.8563H32.8376H33.6368L34.209 79.9925C34.5238 78.9675 34.9498 77.4578 35.1558 76.6377L35.5303 75.1467L35.6331 77.4661C35.6896 78.7417 35.7449 80.2515 35.7559 80.8209L35.7758 81.8563H36.7814H37.787L37.687 80.5724C37.6322 79.8661 37.4973 77.8907 37.3875 76.1821L37.188 73.0759H35.8526H34.517L34.0625 74.6083C33.8126 75.451 33.4391 76.8117 33.2326 77.6317C32.8654 79.0901 32.798 79.1425 32.5928 78.1288C32.5375 77.8554 32.1875 76.6068 31.8153 75.3538L31.1386 73.0759H29.8029H28.4672L28.2668 76.3478ZM39.3766 77.4661V81.8563H42.1589H44.9413V81.028V80.1996H43.2228H41.5043V76.6377V73.0759H40.4404H39.3766V77.4661ZM57.2165 77.4661V81.8563H58.2804H59.3442V80.3005V78.7449L60.5309 78.6784C62.6746 78.5583 63.8335 77.5567 63.8335 75.8236C63.8335 74.7137 63.3967 73.9585 62.4671 73.4609C61.8145 73.1116 61.5376 73.0759 59.4822 73.0759H57.2165V77.4661ZM65.0727 77.4661V81.8563H67.7732H70.4738V81.0338V80.2112L68.7962 80.164L67.1186 80.1168L67.0744 76.5963L67.0302 73.0759H66.0514H65.0727V77.4661ZM73.1213 77.3418C72.2907 79.688 71.6131 81.6638 71.6154 81.732C71.6177 81.8003 72.093 81.8563 72.6717 81.8563H73.7239L73.9874 80.939L74.2508 80.0217L75.7448 80.0692L77.2386 80.1168L77.5114 80.9451L77.7841 81.7735L78.8959 81.823C79.7519 81.8609 79.9907 81.8228 79.9339 81.6573C79.8933 81.5389 79.2028 79.5601 78.3993 77.26L76.9387 73.0778L75.785 73.0768L74.6315 73.0759L73.1213 77.3418ZM80.4679 75.6023L81.9272 78.1288L81.9289 79.9925L81.9307 81.8563H82.9945H84.0584V80.0921V78.3281L85.6068 75.6947L87.1552 73.0616L85.9762 73.1101L84.7973 73.1587L83.9778 74.6913C83.0389 76.4469 83.1667 76.4689 82.0539 74.3598L81.3766 73.0759H80.1926H79.0087L80.4679 75.6023ZM88.3138 77.4661V81.8563H91.2598H94.2059V81.1108V80.3653H92.3237H90.4415V79.2056V78.0459H92.0782H93.7149V77.3004V76.5549H92.0782H90.4415V75.5609V74.5669H92.3237H94.2059V73.8214V73.0759H91.2598H88.3138V77.4661ZM95.6789 77.4541V81.8563H96.7428H97.8066V80.2824V78.7086H98.2767C98.7117 78.7086 98.799 78.8256 99.4518 80.2824L100.157 81.8563H101.355C102.014 81.8563 102.553 81.826 102.553 81.7889C102.553 81.7518 102.102 80.9532 101.552 80.0144C100.832 78.7881 100.613 78.2868 100.774 78.2343C101.226 78.0865 102.052 77.0259 102.157 76.458C102.382 75.243 101.996 74.241 101.018 73.5003C100.618 73.1978 100.287 73.1526 98.1227 73.1053L95.6789 73.052V77.4541ZM9.75235 74.2047C6.39892 75.092 4.28463 77.8812 3.87661 81.9562C3.61146 84.6038 4.10803 87.8023 5.01575 89.2948L5.35831 89.8581L5.83164 89.1345C6.47715 88.1476 6.54278 87.6999 6.22232 86.4717C5.89613 85.222 5.8503 82.1813 6.13885 80.9527C6.40645 79.8133 7.04509 78.5777 7.75836 77.8191C8.48145 77.0504 9.97248 76.2923 11.0594 76.1411C12.6465 75.9201 14.9258 76.8639 15.8875 78.1403C17.3631 80.0986 17.8299 83.5582 17.0365 86.6572C16.7918 87.6133 16.7955 87.689 17.1281 88.4713C17.319 88.9204 17.608 89.4096 17.7705 89.5584C18.0496 89.814 18.0897 89.7786 18.491 88.9198C19.4431 86.8829 19.784 83.7848 19.3414 81.1936C18.7056 77.4704 16.6314 75.0024 13.428 74.1578C12.204 73.8351 11.0961 73.8492 9.75235 74.2047ZM61.3492 75.0317C61.8029 75.491 61.8009 76.3501 61.3451 76.7237C60.9801 77.0229 59.7575 77.2908 59.4979 77.1286C59.4135 77.0756 59.3442 76.4681 59.3442 75.7786V74.5248L60.1762 74.6056C60.7214 74.6587 61.1258 74.8056 61.3492 75.0317ZM99.8011 75.0609C100.517 75.9555 99.8283 77.0519 98.5505 77.0519H97.8066V75.7883V74.5248L98.6554 74.6073C99.2728 74.6673 99.5852 74.791 99.8011 75.0609ZM76.6911 78.4187C76.6922 78.4869 76.2464 78.5429 75.7002 78.5429C74.8305 78.5429 74.7179 78.507 74.7938 78.253C74.8416 78.0935 75.0768 77.3294 75.3168 76.5549L75.7528 75.1467L76.2209 76.7206C76.4783 77.5862 76.6898 78.3504 76.6911 78.4187ZM0.289458 81.8977L0.344451 87.9032L0.847898 89.3309C2.10079 92.8844 4.80969 95.4968 8.35903 96.5745C10.0276 97.0811 12.8595 97.1452 14.4988 96.7136C17.6438 95.8855 20.5177 93.5697 21.8348 90.8024C22.9435 88.4729 23.0044 87.9925 23.0071 81.5664L23.0096 75.8922L21.9867 75.8949C21.0523 75.8972 19.1823 76.232 18.9843 76.4323C18.9393 76.478 19.1054 76.9348 19.3539 77.4474C19.791 78.3498 19.8223 78.3759 20.3436 78.2769L20.8819 78.1746L20.8799 82.6248C20.8778 87.5094 20.7964 88.1101 19.8961 89.8899C19.6192 90.4374 19.2098 91.0973 18.9863 91.3564C18.6108 91.7915 18.5522 91.8092 18.2168 91.5867C15.7405 89.9439 14.684 85.9361 15.8197 82.4928C16.0944 81.6597 16.1044 81.4753 15.9088 80.8361C15.5849 79.7777 15.2826 79.1897 15.0952 79.2528C14.7539 79.368 13.8403 81.3209 13.5668 82.519C13.2018 84.119 13.2017 86.8713 13.5665 88.2718C13.9732 89.8331 14.7428 91.2249 15.8178 92.3438C16.8857 93.4554 16.8934 93.4056 15.5626 94.0212C14.3069 94.6022 13.0793 94.8519 11.5527 94.8363C9.95579 94.82 9.13662 94.6294 7.58127 93.9123L6.47421 93.4018L7.54264 92.2815C8.8209 90.9412 9.49064 89.5985 9.85906 87.6367C10.3484 85.0308 9.81634 81.5008 8.68015 79.8171C8.16164 79.0485 7.97047 79.1529 7.53773 80.4413C7.23805 81.3338 7.23838 81.3747 7.55115 82.5564C8.00321 84.2643 7.98389 87.0505 7.51089 88.3452C7.05883 89.5824 6.27977 90.7063 5.45487 91.3112L4.78661 91.8012L4.41573 91.4485C3.85189 90.9124 2.91554 88.9913 2.63877 87.8033C2.45268 87.0036 2.39147 85.691 2.38967 82.4559L2.38721 78.1682L2.92257 78.2562C3.43372 78.3401 3.48183 78.3004 3.98561 77.3798L4.51344 76.4154L3.37709 76.1538C2.75203 76.01 1.78933 75.8922 1.2376 75.8922H0.234465L0.289458 81.8977ZM29.7007 85.6253C29.6047 85.8759 29.1356 87.1431 28.6583 88.4416L27.7909 90.8024H28.4022C28.9737 90.8024 29.0264 90.7592 29.2097 90.1397L29.4058 89.4771H30.4372H31.4685L31.6648 90.1397C31.8445 90.7469 31.9083 90.8024 32.4271 90.8024C32.7386 90.8024 32.9934 90.7713 32.9934 90.7333C32.9934 90.6553 31.9011 87.5692 31.3613 86.1223C31.0232 85.2159 30.9785 85.1697 30.4407 85.1697C29.9757 85.1697 29.8446 85.2504 29.7007 85.6253ZM37.2986 85.4937C36.9171 85.7293 36.7446 85.9841 36.6608 86.436C36.4691 87.47 36.8335 87.8827 38.5991 88.6317C39.3954 88.9695 39.5928 89.3576 39.1801 89.7753C38.9436 90.0147 37.9217 90.0359 37.3433 89.8132C36.9732 89.6709 36.9135 89.7002 36.822 90.0695C36.6914 90.5957 36.6999 90.6028 37.6801 90.791C39.2839 91.0988 40.5222 90.422 40.5222 89.2377C40.5222 88.4592 40.0656 87.9784 38.8652 87.493C37.7975 87.0613 37.5269 86.7058 37.9101 86.2386C38.1351 85.9641 38.9949 85.9223 39.6027 86.1562C39.9514 86.2904 40.0306 86.2609 40.1244 85.9617C40.2866 85.4449 39.8023 85.1695 38.7315 85.1703C38.1186 85.1707 37.651 85.2762 37.2986 85.4937ZM44.9137 85.4139C44.294 85.7676 44.039 86.6335 44.34 87.3626C44.5236 87.8076 44.7598 88.0051 45.4528 88.2935C46.7564 88.8361 46.8235 88.8909 46.8235 89.4123C46.8235 89.8591 46.7757 89.8947 46.1114 89.9429C45.7196 89.9714 45.1926 89.9219 44.9402 89.8328C44.5393 89.6914 44.4696 89.716 44.3893 90.0268C44.2662 90.5035 44.4421 90.647 45.3636 90.8213C46.9094 91.1135 48.051 90.4311 48.051 89.2145C48.051 88.3659 47.5263 87.8351 46.27 87.4127C44.6245 86.8595 45.2534 85.6601 46.9489 86.1181C47.5276 86.2745 47.597 86.2583 47.7191 85.9369C47.7938 85.7404 47.7869 85.5128 47.7036 85.4235C47.4427 85.1437 45.3994 85.1367 44.9137 85.4139ZM53.3001 85.4599C52.4051 85.9218 52.0799 86.5108 52.0081 87.8005C51.9639 88.5904 52.0192 89.0742 52.192 89.4105C53.2029 91.3778 55.9959 91.3839 57 89.4211C57.3715 88.6948 57.3395 87.1529 56.9385 86.4579C56.2371 85.2422 54.5946 84.7918 53.3001 85.4599ZM62.454 85.4671C60.7919 86.3867 60.6754 89.3132 62.2571 90.407C62.8869 90.8425 63.8154 91.0001 64.6355 90.8105C65.3969 90.6346 65.4089 90.6237 65.3 90.2027C65.2233 89.9052 65.112 89.8743 64.3468 89.9386C62.8841 90.0614 62.1615 89.2569 62.3351 87.6988C62.4826 86.3738 63.8188 85.5731 64.9028 86.1604C65.1506 86.2946 65.221 86.248 65.3092 85.8923C65.3679 85.6556 65.3715 85.417 65.3174 85.3622C65.2632 85.3072 64.7255 85.2371 64.1227 85.2063C63.2759 85.1629 62.8967 85.2222 62.454 85.4671ZM69.3281 87.986V90.8024H69.9009H70.4738V87.986V85.1697H69.9009H69.3281V87.986ZM76.2842 85.3667C76.2408 85.4861 75.7994 86.6928 75.3035 88.0483C74.8076 89.4037 74.4019 90.5779 74.4019 90.6576C74.4019 90.7373 74.648 90.8024 74.9488 90.8024C75.4451 90.8024 75.5138 90.7411 75.6919 90.1397L75.888 89.4771H76.9194H77.9507L78.1469 90.1397C78.3267 90.7469 78.3905 90.8024 78.9093 90.8024C79.2208 90.8024 79.4756 90.7428 79.4756 90.67C79.4756 90.5973 79.0421 89.3485 78.5121 87.8951L77.5486 85.2525L76.9559 85.201C76.5775 85.1682 76.3346 85.228 76.2842 85.3667ZM82.2881 85.6253C82.3354 86.0424 82.4053 86.0852 83.1173 86.1314L83.8947 86.1819V88.4922V90.8024H84.4675H85.0404V88.483V86.1637H85.7769C86.4861 86.1637 86.5134 86.1453 86.5134 85.6667V85.1697H84.3749H82.2362L82.2881 85.6253ZM90.2778 87.986V90.8024H90.8507H91.4235V87.986V85.1697H90.8507H90.2778V87.986ZM96.8261 85.477C95.9509 85.9521 95.4751 86.9958 95.5511 88.2741C95.6504 89.9489 96.5817 90.8498 98.2138 90.8498C99.3544 90.8498 100.119 90.3765 100.599 89.3737C101.27 87.9706 100.743 86.0143 99.5387 85.4357C98.7917 85.0769 97.5277 85.0961 96.8261 85.477ZM105.008 87.986V90.8024H105.499H105.99L105.992 88.773L105.994 86.7435L106.369 87.4062C106.575 87.7707 107.133 88.684 107.61 89.4356C108.417 90.708 108.515 90.8024 109.034 90.8024H109.591V87.986V85.1697H109.001H108.411L108.469 87.1577C108.501 88.2511 108.518 89.1457 108.507 89.1457C108.496 89.1457 107.918 88.2511 107.224 87.1577C106.086 85.3643 105.915 85.1697 105.485 85.1697H105.008V87.986ZM55.5206 86.3898C55.9062 86.7255 55.9803 86.9345 56.0378 87.8477C56.0985 88.8147 56.0638 88.963 55.6641 89.4439C55.0834 90.1424 54.1973 90.1865 53.6034 89.5465C53.2615 89.178 53.2066 88.9587 53.2066 87.9584C53.2066 86.892 53.2439 86.7652 53.6659 86.3978C54.2492 85.8898 54.943 85.8869 55.5206 86.3898ZM99.079 86.33C99.5831 86.8053 99.8126 87.8046 99.6184 88.6789C99.4274 89.5397 98.9485 89.9741 98.1903 89.9741C97.138 89.9741 96.4747 88.7948 96.7354 87.3876C96.9642 86.1529 98.2675 85.5648 99.079 86.33ZM30.4955 88.6177C30.1402 88.6462 29.813 88.6323 29.7682 88.5869C29.6921 88.5099 30.1461 86.9334 30.3444 86.5863C30.3939 86.4998 30.5934 86.9099 30.7878 87.4975L31.1412 88.5659L30.4955 88.6177ZM76.9777 88.6177C76.6224 88.6462 76.3032 88.6404 76.2682 88.605C76.2332 88.5695 76.3638 88.0629 76.5585 87.4793L76.9127 86.4178L77.268 87.4919L77.6234 88.5659L76.9777 88.6177Z" fill="white"/>
</svg>
