<svg width="361" height="56" viewBox="0 0 361 56" fill="none" xmlns="http://www.w3.org/2000/svg">
<path fill-rule="evenodd" clip-rule="evenodd" d="M61.3371 0.246519C57.0636 1.18465 52.5925 4.6458 50.6078 8.55253C49.0846 11.5507 48.4657 15.368 48.9903 18.5272L49.4012 21.0016L47.9528 20.6928C47.1559 20.5229 46.0014 20.3723 45.3865 20.3581C44.7717 20.3444 44.269 20.2209 44.269 20.0846C44.269 19.9482 42.5776 19.2387 40.5099 18.5082C33.2007 15.9257 25.9922 11.7352 20.9596 7.1425C19.5181 5.82717 18.1657 4.75102 17.954 4.75102C17.2062 4.75102 11.1157 9.3215 8.60874 11.764C7.21199 13.125 6.06884 14.55 6.06884 14.9313C6.06884 15.3121 5.67627 15.748 5.19673 15.8994C4.16249 16.2264 2.88888 17.5927 1.14102 20.2501C-0.118773 22.1652 -0.131778 22.2381 0.146189 25.7138C0.301021 27.6511 0.766738 30.7954 1.18166 32.7004C2.54142 38.9521 6.07534 46.7073 7.76386 47.1472C8.3519 47.3002 8.43359 47.4463 8.06052 47.6758C7.4794 48.0335 9.49587 50.7561 12.3471 53.464C15.2714 56.2412 15.49 56.3221 17.9414 55.5346C19.1227 55.1553 20.309 54.5693 20.5776 54.2326C20.8462 53.8959 21.3387 53.7247 21.672 53.8517C22.0052 53.9792 22.8586 53.9173 23.569 53.7145C31.4788 51.4554 44.9753 49.7977 58.4924 49.4254C65.8313 49.2234 68.1957 49.0303 68.7032 48.5916C69.2726 48.0999 69.3953 48.1011 69.5871 48.5985C69.7566 49.0388 71.0989 49.242 75.2249 49.4521C90.1876 50.215 104.13 52.4684 111.979 55.3929C114.048 56.1639 114.27 56.176 115.202 55.5682C118.152 53.6425 122.784 47.8393 125.234 42.9968C126.806 39.891 128.41 35.1647 127.983 34.9017C127.77 34.7709 127.995 33.8672 128.493 32.8465C129.172 31.4547 129.278 30.8618 128.944 30.3348C128.62 29.8225 128.647 29.5404 129.047 29.2384C129.373 28.9932 129.695 27.5079 129.86 25.494C130.133 22.1567 130.132 22.1559 128.684 19.9838C126.726 17.0459 120.34 10.4171 119.469 10.4171C119.084 10.4171 118.58 10.0071 118.35 9.50645C118.12 9.00541 116.637 7.70708 115.054 6.62122L112.175 4.64661L109.616 6.96119C106.201 10.0476 100.664 13.7026 96.1269 15.865C92.1687 17.7514 84.9505 20.2727 82.2411 20.7155L80.5908 20.985L81 18.5187C82.1558 11.5592 78.1179 4.12047 71.6341 1.26479C69.1433 0.167599 64.0087 -0.339916 61.3371 0.246519ZM69.8651 5.55722C73.5412 7.4254 76.0759 10.9343 76.6192 14.9086C77.1467 18.7716 74.7486 23.6315 71.2809 25.7263C70.2963 26.3212 69.4847 26.9571 69.4778 27.1396C69.4705 27.3217 70.9737 27.3602 72.8175 27.225C77.9997 26.8454 79.6244 26.5908 79.6244 26.1577C79.6244 25.9262 80.1869 25.8647 80.9683 26.0108C82.3927 26.2767 86.793 25.5571 92.326 24.1528C98.4038 22.61 106.196 19.4018 110.618 16.6218L112.192 15.6323L115.746 19.0954C117.701 21 119.536 22.5586 119.825 22.5586C120.119 22.5586 120.249 22.8192 120.121 23.1527C119.995 23.4793 120.067 23.8545 120.281 23.986C120.861 24.343 120.751 27.7835 120.051 31.1325C119.207 35.1748 117.968 38.84 116.364 42.038C115.624 43.514 115.107 44.8091 115.214 44.9168C115.322 45.024 114.894 45.6619 114.263 46.3341C113.155 47.5163 113.043 47.545 110.899 47.2022C99.3113 45.3498 86.7032 44.6545 64.7914 44.6594C43.1567 44.6647 31.9811 45.2742 20.4955 47.0764C16.2077 47.749 16.6828 48.0623 14.008 42.7945C12.1878 39.2095 10.4383 34.1788 9.92583 31.0577C9.76124 30.056 9.50725 29.1454 9.36096 29.0341C9.21506 28.9228 9.16427 27.7572 9.24879 26.4439L9.402 24.0564L13.1135 20.2355C17.6443 15.5715 17.9353 15.3947 19.3885 16.4178C23.5174 19.3245 34.2036 23.4639 41.4828 24.9764C48.881 26.5139 60.5394 27.8349 60.5113 27.1327C60.5044 26.9542 59.6929 26.3212 58.7082 25.7263C56.4503 24.3624 54.5932 21.8301 53.7617 18.9817C52.0321 13.0566 56.0675 6.29988 62.2848 4.71096C64.2342 4.21275 68.0587 4.63973 69.8651 5.55722ZM59.8437 10.8521C59.3792 11.3147 59.9534 14.4642 60.5024 14.4642C60.6597 14.4642 61.0673 13.599 61.4082 12.5418L62.0288 10.6194L62.5607 11.7324C63.2219 13.1145 63.4207 13.1186 64.2452 11.7656L64.9031 10.6858L65.609 12.0457L66.3153 13.4055L67.0452 12.0125C67.8234 10.5267 67.7759 10.4879 68.7784 13.4197L69.3205 15.0058L69.8431 13.1481C70.1301 12.1266 70.2434 11.0938 70.0943 10.8538C69.7298 10.2665 60.4333 10.2649 59.8437 10.8521ZM68.6671 19.1185C67.8986 21.4743 67.8169 21.5322 67.0033 20.2978L66.2633 19.1743L65.7671 20.2594C65.1482 21.6115 64.702 21.6314 64.1078 20.3326C63.8534 19.7762 63.495 19.3209 63.3117 19.3209C63.128 19.3209 62.8635 19.7762 62.7233 20.3326C62.3547 21.7941 61.8467 21.5788 61.2892 19.7256C61.0214 18.8352 60.6788 18.1067 60.528 18.1067C59.992 18.1067 59.3048 21.1012 59.7408 21.5367C59.9696 21.7649 62.0499 22.013 64.3643 22.0883C70.1183 22.2757 71.0103 21.7135 69.718 18.7138L69.195 17.4996L68.6671 19.1185ZM108.351 27.2606C106.85 27.7199 106.195 28.1967 105.535 29.3117C104.685 30.7468 104.666 30.7541 104.001 29.9366C103.204 28.9568 102.102 28.784 99.2768 29.1972C97.3562 29.478 97.1672 29.6039 96.9352 30.7594C96.7954 31.4567 96.8661 32.1285 97.0941 32.269C97.3204 32.4082 97.5935 34.0594 97.7012 35.9381L97.8971 39.3544L99.3633 39.305C102.058 39.2143 104.398 36.5865 104.521 33.5135C104.582 31.9808 104.621 31.9286 105.073 32.7761C105.342 33.28 106.349 33.9651 107.324 34.3067C108.639 34.7681 109.122 35.1676 109.224 35.8799C109.391 37.0369 108.718 37.5186 106.925 37.5271C105.76 37.5323 105.594 37.6574 105.706 38.4437C105.815 39.2038 106.127 39.375 107.597 39.4802C110.277 39.6725 111.322 38.8039 111.322 36.387C111.322 34.0752 110.811 33.3297 108.788 32.6915C107.02 32.1342 106.703 31.7574 107.059 30.6396C107.231 30.1029 107.934 29.6606 109.118 29.3453C110.7 28.9236 110.916 28.7305 110.916 27.7361C110.916 26.4487 110.97 26.4589 108.351 27.2606ZM19.2995 28.3149C18.6497 29.2385 18.5103 31.1285 19.0008 32.3592C19.1528 32.7413 20.1582 33.6102 21.2343 34.2901C22.7534 35.2493 23.1626 35.7281 23.0626 36.4283C22.9521 37.2017 22.6843 37.3308 21.1888 37.3308C19.5669 37.3308 19.4527 37.402 19.5632 38.3426C19.6673 39.2244 19.9087 39.3705 21.4432 39.4802C24.0554 39.6676 25.1689 38.7914 25.1689 36.548C25.1689 35.0725 24.9633 34.5997 23.9518 33.7523C23.2825 33.1913 22.3774 32.6195 21.941 32.4814C20.9376 32.1646 20.4792 30.7966 21.1189 30.0293C21.4667 29.6116 22.058 29.5161 23.1845 29.6958C24.5951 29.9204 24.7625 29.8573 24.7625 29.1C24.7625 28.0154 23.6218 27.4152 21.561 27.4152C20.3382 27.4152 19.7741 27.6394 19.2995 28.3149ZM25.7443 29.1794C25.6277 29.4821 25.6184 30.2563 25.7236 30.8994C25.8289 31.5429 25.9301 33.7539 25.9483 35.8131C25.9813 39.5037 25.9955 39.5567 26.9745 39.5567C27.851 39.5567 27.9815 39.3564 28.092 37.8415C28.2123 36.1883 28.2745 36.117 29.809 35.8706C32.2607 35.4768 33.119 33.5839 32.0799 30.8622C31.3963 29.0709 26.3068 27.7195 25.7443 29.1794ZM33.2255 32.7534C33.1527 34.6034 33.1848 36.8451 33.2966 37.7355L33.4998 39.3544L35.8702 39.4766C37.9692 39.5851 38.2252 39.5154 38.1045 38.8695C38.0273 38.4567 37.4019 37.9739 36.6623 37.7569L35.3561 37.3733L35.2407 33.5074C35.1326 29.8876 35.0688 29.633 34.2414 29.5157C33.4035 29.3971 33.3506 29.5647 33.2255 32.7534ZM94.0478 30.3494C93.9487 30.6278 93.817 32.0391 93.756 33.486L93.6447 36.1166L92.6287 33.3674C91.6591 30.744 91.5571 30.6238 90.3936 30.7367L89.1744 30.8553L89.059 35.206C88.9501 39.3167 88.9883 39.5567 89.7515 39.5567C90.4639 39.5567 90.574 39.2414 90.6797 36.8985L90.8 34.2404L91.8005 36.7974C92.8969 39.5988 93.2005 39.9461 94.559 39.9554C95.4324 39.961 95.4767 39.8024 95.5498 36.4202C95.5917 34.4727 95.6437 32.1961 95.6656 31.3612C95.6973 30.1499 95.5563 29.8435 94.967 29.8435C94.5611 29.8435 94.1474 30.0714 94.0478 30.3494ZM38.7828 34.7859V39.3544L39.9137 39.4839L41.0451 39.613L40.9297 35.032C40.8155 30.4813 40.8078 30.4498 39.7987 30.334L38.7828 30.2175V34.7859ZM42.6434 35.3072C42.6434 39.2868 42.695 39.5567 43.4562 39.5567C44.1727 39.5567 44.271 39.2815 44.2852 37.2296L44.3015 34.9025L45.1996 36.9273C46.4752 39.8032 46.6187 39.9614 47.9504 39.9614H49.1456V35.7119C49.1456 31.7323 49.094 31.4624 48.3328 31.4624C47.6351 31.4624 47.5192 31.7343 47.5139 33.3848C47.5038 36.4857 46.9804 36.5804 45.8909 33.6782C45.0037 31.3159 44.7952 31.0577 43.7752 31.0577H42.6434V35.3072ZM82.6264 31.3673C82.3773 31.5308 81.4036 33.2128 80.462 35.1048C78.645 38.757 77.9989 39.7061 77.9989 38.723C77.9989 38.3256 77.5669 38.1337 76.6781 38.1362L75.3574 38.1402L75.472 35.0037C75.5845 31.9318 75.5667 31.8671 74.6125 31.8671C73.6965 31.8671 73.6258 32.0367 73.4348 34.692C73.3234 36.2461 73.3202 37.9763 73.4279 38.5368C73.6193 39.5357 73.6985 39.5567 77.228 39.5567H80.8326L81.4369 38.1163C82.0111 36.7484 82.1281 36.6824 83.7773 36.801C85.352 36.9143 85.5324 37.0386 85.7202 38.1402C85.886 39.1119 86.1574 39.3807 87.0799 39.4859C88.0325 39.5948 88.1951 39.4895 88.0171 38.8788C85.6889 30.9083 85.7584 31.0572 84.3746 31.0637C83.6618 31.0674 82.8751 31.2038 82.6264 31.3673ZM102.425 32.0015C103.31 33.936 101.357 37.7958 99.9351 36.9208C99.4926 36.6484 99.3812 31.7526 99.8083 31.3276C100.446 30.6918 102.01 31.0945 102.425 32.0015ZM29.8509 32.0257C30.508 32.5041 30.5429 32.6866 30.0821 33.2399C29.4652 33.9797 29.2518 34.0186 28.4781 33.5305C28.1323 33.3119 28.0286 32.8619 28.2005 32.3224C28.522 31.3138 28.8036 31.2633 29.8509 32.0257ZM49.8194 32.4944C49.9523 32.8396 50.5655 33.2225 51.1824 33.3451C52.3837 33.5847 52.7888 34.7608 52.7986 38.039C52.8026 39.3867 52.9168 39.5567 53.819 39.5567C54.954 39.5567 54.9609 39.5328 54.8463 36.0438L54.7638 33.5426L56.1167 33.4131C57.0173 33.3269 57.5151 33.0468 57.6045 32.5753C57.7256 31.9391 57.3253 31.8671 53.6585 31.8671C50.1392 31.8671 49.6109 31.9533 49.8194 32.4944ZM58.3778 32.1706C58.2888 32.3374 58.1742 34.0562 58.1238 35.9895L58.0324 39.5045L59.5832 39.632C60.4362 39.702 61.9109 39.6951 62.8611 39.617C64.2367 39.5041 64.5882 39.3187 64.5882 38.7064C64.5882 38.0633 64.2846 37.9379 62.7298 37.9379C61.1868 37.9379 60.8942 37.8189 61.0063 37.2377C61.114 36.6808 61.494 36.563 62.8643 36.6618C64.2964 36.7646 64.5451 36.6776 64.3399 36.1454C64.2017 35.7868 63.3975 35.3942 62.512 35.2534C60.2224 34.8887 60.4041 33.8907 62.7595 33.8907C64.439 33.8907 64.5882 33.8081 64.5882 32.8789C64.5882 31.8902 64.5187 31.8671 61.5643 31.8671C59.901 31.8671 58.4672 32.0039 58.3778 32.1706ZM65.7874 31.9683C65.7765 32.0241 65.6838 33.5264 65.5814 35.3072C65.479 37.0879 65.3063 38.7845 65.1974 39.0775C65.058 39.4523 65.3266 39.5721 66.104 39.4823C67.0046 39.3778 67.2915 39.0577 67.6596 37.744L68.1111 36.1336L69.2482 37.8452C70.15 39.2018 70.6291 39.5567 71.5613 39.5567C72.7244 39.5567 72.7301 39.545 72.1116 38.4437C71.7678 37.8314 71.2752 37.0341 71.0168 36.6719C70.6425 36.1462 70.7258 35.7868 71.4285 34.8972C72.5163 33.5196 72.5415 32.8287 71.5235 32.286C70.864 31.9347 65.8484 31.6566 65.7874 31.9683ZM69.3876 34.1408C69.0259 34.501 68.5297 34.6726 68.2847 34.5216C67.4776 34.025 67.8202 33.486 68.9422 33.486C69.9586 33.486 69.9935 33.5374 69.3876 34.1408ZM84.501 34.3193C84.501 34.5289 84.128 34.7001 83.6724 34.7001C82.9836 34.7001 82.932 34.6046 83.3676 34.1355C83.9081 33.5531 84.501 33.6491 84.501 34.3193Z" fill="white"/>
<path d="M162.683 33L160.472 29.9331L158.186 33H155L158.879 27.9628L155.131 23H158.411L160.547 25.9182L162.739 23H165.85L162.102 27.8885L166 33H162.683Z" fill="white"/>
<path fill-rule="evenodd" clip-rule="evenodd" d="M207.716 3.17498C206.535 3.46672 205.898 3.89797 205.134 4.92486C204.494 5.78401 204.428 6.06875 204.434 7.96307C204.44 9.60164 204.56 10.2837 204.992 11.1206C206.549 14.135 209.778 14.8924 211.884 12.7372C213.036 11.5581 213.47 10.5154 213.603 8.60322C213.752 6.46869 213.38 5.26137 212.26 4.25597C210.983 3.1082 209.456 2.74502 207.716 3.17498ZM193.24 8.36119C191.391 9.22034 190.641 11.1657 191.161 13.7586C191.401 14.9527 191.66 15.4311 192.536 16.2957C193.909 17.6508 195.023 17.9058 196.551 17.2144C199.157 16.0348 200.243 12.2619 198.716 9.69276C198.141 8.72463 196.484 7.86419 195.195 7.86419C194.708 7.86419 193.829 8.08784 193.24 8.36119ZM220.761 8.4184C219.3 9.20067 218.717 10.3332 218.725 12.3787C218.744 17.7028 224.125 19.5394 226.486 15.0278C227.143 13.7718 227.104 10.7059 226.418 9.76549C225.037 7.86936 222.787 7.33353 220.761 8.4184ZM263.986 15.9421C263.162 16.3677 262.704 16.8357 262.289 17.6795C261.587 19.1038 261.575 19.8092 262.23 21.1928C262.78 22.3553 263.967 23.1554 266.471 24.0505C268.21 24.6721 268.722 25.2359 268.4 26.1747C268.025 27.2723 266.694 27.4983 264.501 26.8374L262.753 26.3104L262.377 27.4372L262.002 28.564L262.809 28.9981C264.03 29.6551 267.748 29.7827 269.194 29.2176C270.865 28.564 271.711 27.3072 271.711 25.4753C271.711 23.1124 270.698 22.1402 266.712 20.6756C264.806 19.9751 264.484 18.5993 266.068 17.9275C266.844 17.5988 267.331 17.6679 270.035 18.4898C270.259 18.5578 270.517 18.1942 270.761 17.4652C271.081 16.5124 271.086 16.2996 270.793 16.1072C269.375 15.1756 265.647 15.0853 263.986 15.9421ZM353.354 15.8528C350.577 17.1825 350.291 21.1884 352.864 22.7218C353.444 23.0671 354.601 23.604 355.435 23.9146C356.27 24.2253 357.167 24.6884 357.429 24.9436C358.377 25.8695 357.337 27.2671 355.699 27.2671C355.37 27.2671 354.414 27.0484 353.574 26.7807L352.047 26.2946L351.669 27.4292L351.292 28.564L352.099 28.9981C353.32 29.6551 357.037 29.7827 358.483 29.2176C360.155 28.564 361 27.3072 361 25.4753C361 23.1124 359.987 22.1402 356.002 20.6756C354.181 20.0067 353.776 18.6508 355.199 17.9876C356.103 17.5659 356.884 17.6153 358.355 18.1874L359.636 18.6857L359.873 18.0466C360.45 16.4948 360.429 16.2486 359.687 15.8849C359.296 15.6931 357.952 15.4919 356.7 15.4384C354.824 15.3576 354.235 15.4306 353.354 15.8528ZM234.685 20.731C234.515 23.5427 234.308 26.6295 234.226 27.5907L234.076 29.338H235.591H237.106L237.271 26.191C237.362 24.4603 237.445 22.1013 237.456 20.9492L237.475 18.8542L238.218 21.7017C238.627 23.2678 239.31 25.6265 239.737 26.9435L240.514 29.338H241.749H242.984L243.868 26.4258C244.355 24.8243 245.013 22.4653 245.332 21.184L245.91 18.8542L246.069 22.4782C246.157 24.4714 246.242 26.8304 246.259 27.7201L246.29 29.338H247.844H249.398L249.244 27.3318C249.159 26.2283 248.95 23.1417 248.781 20.4721L248.472 15.6185H246.409H244.345L243.642 18.013C243.256 19.3298 242.679 21.4558 242.359 22.7371C241.792 25.0158 241.688 25.0976 241.371 23.5137C241.285 23.0866 240.744 21.1356 240.169 19.1778L239.123 15.6185H237.059H234.995L234.685 20.731ZM251.855 22.4782V29.338H256.155H260.455V28.0437V26.7494H257.799H255.143V21.184V15.6185H253.499H251.855V22.4782ZM279.426 22.4782V29.338H281.07H282.714V26.907V24.4764L284.548 24.3726C287.861 24.1849 289.652 22.6198 289.652 19.9119C289.652 18.1776 288.977 16.9977 287.54 16.2201C286.532 15.6744 286.104 15.6185 282.927 15.6185H279.426V22.4782ZM291.567 22.4782V29.338H295.74H299.914V28.0527V26.7675L297.321 26.6937L294.729 26.62L294.66 21.1192L294.592 15.6185H293.079H291.567V22.4782ZM304.006 22.2841C302.722 25.95 301.675 29.0372 301.678 29.1438C301.682 29.2505 302.416 29.338 303.311 29.338H304.937L305.344 27.9047L305.751 26.4714L308.06 26.5457L310.369 26.62L310.79 27.9143L311.212 29.2085L312.93 29.2859C314.253 29.3452 314.622 29.2857 314.534 29.0271C314.471 28.842 313.404 25.7502 312.163 22.1562L309.905 15.6216L308.122 15.6201L306.34 15.6185L304.006 22.2841ZM315.36 19.5661L317.615 23.5137L317.617 26.4258L317.62 29.338H319.264H320.908V26.5814V23.8251L323.301 19.7105L325.694 15.5963L323.872 15.6721L322.05 15.7479L320.784 18.1426C319.333 20.8858 319.53 20.9202 317.811 17.6247L316.764 15.6185H314.934H313.104L315.36 19.5661ZM327.485 22.4782V29.338H332.038H336.591V28.1731V27.0082H333.682H330.773V25.1962V23.3842H333.303H335.832V22.2194V21.0545H333.303H330.773V19.5014V17.9482H333.682H336.591V16.7834V15.6185H332.038H327.485V22.4782ZM338.867 22.4596V29.338H340.512H342.156V26.8788V24.4197H342.882C343.554 24.4197 343.689 24.6024 344.698 26.8788L345.788 29.338H347.639C348.658 29.338 349.491 29.2906 349.491 29.2326C349.491 29.1746 348.795 27.9269 347.944 26.46C346.832 24.5439 346.493 23.7606 346.742 23.6786C347.44 23.4477 348.717 21.7905 348.879 20.9031C349.227 19.0046 348.631 17.4391 347.118 16.2817C346.5 15.809 345.989 15.7384 342.644 15.6646L338.867 15.5812V22.4596ZM206.072 17.3824C200.889 18.7688 197.622 23.1269 196.991 29.4941C196.581 33.6309 197.349 38.6286 198.752 40.9607L199.281 41.8408L200.013 40.7101C201.01 39.1681 201.112 38.4686 200.616 36.5495C200.112 34.5969 200.041 29.8458 200.487 27.9262C200.901 26.1457 201.888 24.2152 202.99 23.0299C204.108 21.8288 206.412 20.6442 208.092 20.4079C210.545 20.0626 214.067 21.5373 215.553 23.5318C217.834 26.5915 218.555 31.9972 217.329 36.8394C216.951 38.3333 216.957 38.4516 217.471 39.6739C217.766 40.3757 218.212 41.1401 218.464 41.3725C218.895 41.7719 218.957 41.7165 219.577 40.3746C221.048 37.192 221.575 32.3513 220.891 28.3025C219.909 22.485 216.703 18.6288 211.752 17.3091C209.861 16.8049 208.148 16.8269 206.072 17.3824ZM285.812 18.6746C286.514 19.3921 286.511 20.7346 285.806 21.3183C285.242 21.7858 283.353 22.2044 282.951 21.951C282.821 21.8681 282.714 20.9189 282.714 19.8415V17.8825L284 18.0088C284.842 18.0916 285.467 18.3213 285.812 18.6746ZM345.238 18.7202C346.344 20.118 345.28 21.8311 343.305 21.8311H342.156V19.8568V17.8825L343.467 18.0114C344.422 18.1051 344.904 18.2985 345.238 18.7202ZM309.523 23.9667C309.524 24.0733 308.835 24.1608 307.991 24.1608C306.647 24.1608 306.473 24.1046 306.59 23.7078C306.664 23.4585 307.028 22.2647 307.399 21.0545L308.072 18.8542L308.796 21.3134C309.194 22.6659 309.521 23.86 309.523 23.9667ZM191.447 29.4027L191.532 38.7863L192.31 41.0171C194.247 46.5693 198.433 50.6513 203.918 52.3351C206.497 53.1267 210.874 53.2269 213.407 52.5526C218.268 51.2585 222.709 47.6402 224.745 43.3163C226.458 39.6765 226.552 38.9258 226.556 28.885L226.56 20.0191L224.979 20.0232C223.535 20.0269 220.645 20.55 220.339 20.863C220.27 20.9344 220.527 21.6481 220.911 22.449C221.586 23.859 221.634 23.8999 222.44 23.7451L223.272 23.5854L223.269 30.5388C223.266 38.171 223.14 39.1096 221.749 41.8905C221.321 42.746 220.688 43.777 220.342 44.1819C219.762 44.8616 219.672 44.8893 219.153 44.5417C215.326 41.9749 213.694 35.7126 215.449 30.3325C215.873 29.0307 215.889 28.7426 215.586 27.7439C215.086 26.0901 214.619 25.1714 214.329 25.27C213.802 25.4499 212.39 28.5013 211.967 30.3734C211.403 32.8734 211.403 37.1738 211.966 39.3622C212.595 41.8017 213.784 43.9764 215.446 45.7247C217.096 47.4616 217.108 47.3837 215.051 48.3456C213.111 49.2534 211.213 49.6435 208.854 49.6192C206.386 49.5938 205.12 49.2959 202.717 48.1755L201.006 47.3778L202.657 45.6273C204.632 43.5332 205.667 41.4352 206.237 38.3698C206.993 34.2982 206.171 28.7825 204.415 26.1517C203.613 24.9509 203.318 25.1139 202.649 27.1271C202.186 28.5215 202.187 28.5855 202.67 30.4319C203.369 33.1005 203.339 37.4539 202.608 39.4769C201.909 41.41 200.705 43.1661 199.43 44.1112L198.397 44.8769L197.824 44.3258C196.953 43.4882 195.506 40.4864 195.078 38.6302C194.791 37.3807 194.696 35.3297 194.693 30.2748L194.689 23.5753L195.517 23.7127C196.307 23.844 196.381 23.7818 197.16 22.3434L197.975 20.8366L196.219 20.4278C195.253 20.2031 193.765 20.0191 192.913 20.0191H191.362L191.447 29.4027ZM236.901 35.227C236.753 35.6186 236.028 37.5986 235.29 39.6276L233.95 43.3163H234.894C235.778 43.3163 235.859 43.2487 236.142 42.2808L236.445 41.2454H238.039H239.633L239.936 42.2808C240.214 43.2296 240.313 43.3163 241.115 43.3163C241.596 43.3163 241.99 43.2676 241.99 43.2083C241.99 43.0864 240.302 38.2644 239.467 36.0035C238.945 34.5873 238.876 34.5151 238.045 34.5151C237.326 34.5151 237.123 34.6412 236.901 35.227ZM248.643 35.0214C248.054 35.3895 247.787 35.7877 247.658 36.4938C247.361 38.1094 247.924 38.7542 250.653 39.9245C251.884 40.4523 252.189 41.0588 251.551 41.7114C251.186 42.0854 249.606 42.1185 248.712 41.7706C248.14 41.5483 248.048 41.5941 247.907 42.1711C247.705 42.9932 247.718 43.0043 249.233 43.2984C251.712 43.7794 253.625 42.7219 253.625 40.8714C253.625 39.655 252.92 38.9038 251.064 38.1453C249.414 37.4708 248.996 36.9152 249.588 36.1853C249.936 35.7563 251.265 35.6911 252.204 36.0566C252.743 36.2663 252.865 36.2202 253.01 35.7527C253.261 34.9451 252.513 34.5149 250.858 34.5162C249.911 34.5167 249.188 34.6816 248.643 35.0214ZM260.412 34.8967C259.454 35.4493 259.06 36.8024 259.525 37.9416C259.809 38.6369 260.174 38.9455 261.245 39.3961C263.26 40.2439 263.364 40.3296 263.364 41.1442C263.364 41.8423 263.29 41.898 262.263 41.9733C261.658 42.0178 260.843 41.9404 260.453 41.8012C259.834 41.5804 259.726 41.6187 259.602 42.1043C259.411 42.8493 259.683 43.0735 261.107 43.3458C263.496 43.8024 265.261 42.7362 265.261 40.8351C265.261 39.5093 264.45 38.6799 262.508 38.0198C259.965 37.1555 260.937 35.2813 263.557 35.9971C264.452 36.2414 264.559 36.2161 264.748 35.7139C264.863 35.4069 264.852 35.0512 264.724 34.9117C264.321 34.4745 261.163 34.4636 260.412 34.8967ZM273.373 34.9686C271.99 35.6903 271.487 36.6106 271.376 38.6258C271.308 39.86 271.393 40.6159 271.66 41.1414C273.223 44.2153 277.539 44.2249 279.091 41.1579C279.665 40.0231 279.616 37.6139 278.996 36.528C277.912 34.6285 275.373 33.9247 273.373 34.9686ZM287.52 34.9798C284.951 36.4167 284.771 40.9894 287.215 42.6984C288.189 43.3789 289.624 43.6251 290.891 43.329C292.068 43.054 292.086 43.037 291.918 42.3792C291.8 41.9143 291.628 41.8661 290.445 41.9666C288.185 42.1584 287.068 40.9014 287.336 38.4668C287.564 36.3965 289.629 35.1454 291.304 36.0631C291.687 36.2728 291.796 36.2 291.932 35.6443C292.023 35.2743 292.029 34.9016 291.945 34.8159C291.861 34.73 291.03 34.6205 290.099 34.5723C288.79 34.5045 288.204 34.5972 287.52 34.9798ZM298.143 38.9157V43.3163H299.029H299.914V38.9157V34.5151H299.029H298.143V38.9157ZM308.894 34.8229C308.827 35.0095 308.145 36.8951 307.378 39.013C306.612 41.1307 305.985 42.9655 305.985 43.09C305.985 43.2145 306.365 43.3163 306.83 43.3163C307.597 43.3163 307.703 43.2205 307.978 42.2808L308.281 41.2454H309.875H311.469L311.773 42.2808C312.05 43.2296 312.149 43.3163 312.951 43.3163C313.432 43.3163 313.826 43.2231 313.826 43.1094C313.826 42.9958 313.156 41.0445 312.337 38.7736L310.848 34.6445L309.932 34.564C309.347 34.5128 308.972 34.6062 308.894 34.8229ZM318.173 35.227C318.246 35.8788 318.354 35.9456 319.454 36.0178L320.655 36.0967V39.7065V43.3163H321.541H322.426V39.6923V36.0683H323.564C324.66 36.0683 324.703 36.0395 324.703 35.2917V34.5151H321.398H318.092L318.173 35.227ZM330.52 38.9157V43.3163H331.406H332.291V38.9157V34.5151H331.406H330.52V38.9157ZM340.64 34.9953C339.288 35.7377 338.552 37.3685 338.67 39.3658C338.823 41.9826 340.263 43.3903 342.785 43.3903C344.548 43.3903 345.73 42.6507 346.471 41.0839C347.508 38.8916 346.694 35.8348 344.833 34.9308C343.678 34.3702 341.725 34.4002 340.64 34.9953ZM353.285 38.9157V43.3163H354.044H354.803L354.806 40.1453L354.809 36.9743L355.388 38.0097C355.707 38.5792 356.57 40.0063 357.307 41.1807C358.553 43.1687 358.705 43.3163 359.507 43.3163H360.368V38.9157V34.5151H359.456H358.544L358.634 37.6214C358.683 39.3299 358.709 40.7277 358.692 40.7277C358.675 40.7277 357.783 39.3299 356.71 37.6214C354.951 34.8193 354.688 34.5151 354.023 34.5151H353.285V38.9157ZM276.805 36.4216C277.4 36.946 277.515 37.2727 277.604 38.6995C277.698 40.2105 277.644 40.4422 277.026 41.1936C276.129 42.285 274.76 42.3538 273.842 41.3539C273.313 40.7782 273.228 40.4354 273.228 38.8725C273.228 37.2062 273.286 37.0082 273.938 36.434C274.84 35.6404 275.912 35.6357 276.805 36.4216ZM344.122 36.3282C344.901 37.0708 345.256 38.6322 344.956 39.9982C344.661 41.3433 343.92 42.022 342.749 42.022C341.122 42.022 340.097 40.1794 340.5 37.9807C340.854 36.0514 342.868 35.1325 344.122 36.3282ZM238.129 39.9027C237.58 39.9472 237.075 39.9255 237.005 39.8546C236.888 39.7342 237.589 37.2709 237.896 36.7286C237.972 36.5935 238.281 37.2342 238.581 38.1523L239.127 39.8217L238.129 39.9027ZM309.966 39.9027C309.416 39.9472 308.923 39.9382 308.869 39.8828C308.815 39.8274 309.017 39.0358 309.318 38.1238L309.865 36.4653L310.414 38.1435L310.963 39.8217L309.966 39.9027Z" fill="white"/>
</svg>
