<svg width="134" height="106" viewBox="0 0 134 106" fill="none" xmlns="http://www.w3.org/2000/svg">
<path fill-rule="evenodd" clip-rule="evenodd" d="M63.9006 0.2069C60.2846 0.994263 56.5014 3.89915 54.8219 7.17802C53.5331 9.69432 53.0094 12.8981 53.4534 15.5496L53.801 17.6264L52.5755 17.3672C51.9012 17.2245 50.9243 17.0982 50.404 17.0863C49.8837 17.0747 49.4584 16.9711 49.4584 16.8567C49.4584 16.7422 48.0272 16.1468 46.2776 15.5336C40.0929 13.3662 33.9934 9.84921 29.735 5.9946C28.5153 4.89066 27.371 3.98747 27.1918 3.98747C26.5591 3.98747 21.4056 7.8234 19.2843 9.87333C18.1025 11.0157 17.1352 12.2116 17.1352 12.5316C17.1352 12.8512 16.803 13.2171 16.3972 13.3441C15.5221 13.6186 14.4444 14.7653 12.9655 16.9956C11.8995 18.6029 11.8885 18.6641 12.1237 21.5812C12.2547 23.2072 12.6488 25.8461 12.9999 27.445C14.1504 32.6919 17.1407 39.2007 18.5694 39.57C19.067 39.6984 19.1361 39.821 18.8204 40.0136C18.3287 40.3139 20.035 42.5988 22.4475 44.8716C24.922 47.2024 25.107 47.2704 27.1811 46.6094C28.1808 46.2911 29.1845 45.7992 29.4118 45.5166C29.6391 45.234 30.0558 45.0903 30.3378 45.197C30.6198 45.304 31.3419 45.252 31.943 45.0818C38.6359 43.1858 50.056 41.7945 61.4936 41.482C67.7034 41.3125 69.704 41.1505 70.1335 40.7823C70.6153 40.3696 70.7191 40.3706 70.8814 40.788C71.0248 41.1576 72.1606 41.3281 75.6518 41.5044C88.3126 42.1447 100.11 44.036 106.751 46.4905C108.502 47.1376 108.69 47.1477 109.478 46.6376C111.975 45.0214 115.894 40.1508 117.967 36.0866C119.297 33.48 120.655 29.5133 120.293 29.2925C120.113 29.1827 120.303 28.4243 120.724 27.5676C121.299 26.3995 121.389 25.9018 121.107 25.4596C120.832 25.0296 120.855 24.7928 121.194 24.5394C121.469 24.3336 121.742 23.087 121.882 21.3968C122.112 18.5958 122.112 18.5951 120.887 16.7721C119.229 14.3064 113.827 8.7429 113.089 8.7429C112.763 8.7429 112.337 8.39881 112.142 7.97863C111.948 7.55811 110.693 6.46844 109.353 5.5571L106.918 3.89983L104.752 5.84242C101.862 8.43277 97.1774 11.5004 93.3381 13.3152C89.9889 14.8985 83.8812 17.0146 81.5886 17.3862L80.1922 17.6124L80.5385 15.5425C81.5164 9.70146 78.0998 3.45826 72.6135 1.06152C70.5059 0.140664 66.1612 -0.285287 63.9006 0.2069ZM71.1166 4.6641C74.2272 6.23203 76.3719 9.177 76.8316 12.5126C77.278 15.7548 75.2488 19.8336 72.3146 21.5917C71.4815 22.091 70.7948 22.6247 70.7889 22.7779C70.7827 22.9307 72.0547 22.963 73.6148 22.8495C77.9997 22.5309 79.3745 22.3173 79.3745 21.9538C79.3745 21.7595 79.8504 21.7079 80.5117 21.8305C81.7169 22.0537 85.4403 21.4497 90.122 20.2711C95.2648 18.9762 101.858 16.2836 105.6 13.9504L106.932 13.1199L109.939 16.0265C111.593 17.625 113.146 18.9331 113.39 18.9331C113.639 18.9331 113.75 19.1518 113.641 19.4317C113.534 19.7059 113.595 20.0207 113.776 20.1311C114.267 20.4307 114.174 23.3183 113.582 26.1291C112.868 29.5217 111.819 32.5978 110.462 35.2819C109.836 36.5207 109.398 37.6077 109.489 37.698C109.58 37.788 109.218 38.3234 108.684 38.8876C107.746 39.8797 107.652 39.9039 105.838 39.6162C96.0326 38.0615 85.3643 37.4779 66.8235 37.482C48.5172 37.4864 39.061 37.998 29.3423 39.5105C25.7142 40.0751 26.1162 40.338 23.8529 35.9168C22.3127 32.9079 20.8324 28.6858 20.3988 26.0662C20.2595 25.2256 20.0446 24.4613 19.9208 24.3679C19.7974 24.2745 19.7544 23.2962 19.8259 22.194L19.9555 20.1902L23.096 16.9834C26.9298 13.069 27.176 12.9205 28.4056 13.7792C31.8993 16.2188 40.9415 19.693 47.1008 20.9623C53.3609 22.2527 63.2256 23.3614 63.2019 22.7721C63.1961 22.6223 62.5094 22.091 61.6762 21.5917C59.7657 20.447 58.1942 18.3217 57.4907 15.9311C56.0272 10.9582 59.4418 5.2874 64.7025 3.95384C66.352 3.5357 69.5881 3.89406 71.1166 4.6641ZM62.6369 9.10805C62.2439 9.49629 62.7298 12.1396 63.1943 12.1396C63.3274 12.1396 63.6723 11.4134 63.9608 10.5262L64.4859 8.91273L64.936 9.84683C65.4955 11.0068 65.6636 11.0102 66.3613 9.87469L66.918 8.96844L67.5153 10.1097L68.113 11.251L68.7305 10.0819C69.389 8.83495 69.3488 8.80234 70.1971 11.2629L70.6558 12.5941L71.098 11.035C71.3408 10.1777 71.4368 9.31083 71.3106 9.1094C71.0021 8.61654 63.1359 8.61518 62.6369 9.10805ZM70.1029 16.0459C69.4527 18.0231 69.3835 18.0717 68.6951 17.0357L68.069 16.0928L67.6491 17.0034C67.1254 18.1383 66.7478 18.1549 66.2451 17.0649C66.0298 16.5978 65.7266 16.2157 65.5715 16.2157C65.416 16.2157 65.1922 16.5978 65.0736 17.0649C64.7617 18.2915 64.3318 18.1108 63.8601 16.5554C63.6335 15.8081 63.3436 15.1967 63.216 15.1967C62.7624 15.1967 62.181 17.7099 62.5499 18.0754C62.7435 18.267 64.5038 18.4752 66.4621 18.5384C71.3308 18.6957 72.0856 18.2239 70.9921 15.7062L70.5496 14.6872L70.1029 16.0459ZM103.682 22.8794C102.411 23.265 101.857 23.6651 101.299 24.6009C100.579 25.8054 100.564 25.8115 100.001 25.1254C99.3269 24.303 98.3943 24.158 96.0034 24.5048C94.3783 24.7405 94.2184 24.8461 94.0221 25.8159C93.9038 26.4012 93.9636 26.965 94.1565 27.0829C94.3481 27.1997 94.5791 28.5856 94.6702 30.1624L94.836 33.0296L96.0767 32.9881C98.3565 32.912 100.336 30.7065 100.441 28.1274C100.493 26.841 100.526 26.7972 100.908 27.5085C101.135 27.9314 101.988 28.5065 102.812 28.7931C103.926 29.1804 104.334 29.5156 104.421 30.1135C104.561 31.0846 103.992 31.4888 102.475 31.4959C101.489 31.5003 101.349 31.6053 101.444 32.2653C101.535 32.9032 101.8 33.0469 103.043 33.1352C105.311 33.2965 106.196 32.5676 106.196 30.5391C106.196 28.5989 105.763 27.9732 104.052 27.4375C102.556 26.9698 102.288 26.6535 102.589 25.7154C102.734 25.265 103.329 24.8937 104.33 24.6291C105.669 24.2751 105.852 24.1131 105.852 23.2785C105.852 22.198 105.898 22.2065 103.682 22.8794ZM28.3303 23.7643C27.7805 24.5394 27.6626 26.1257 28.0776 27.1586C28.2062 27.4793 29.0569 28.2086 29.9675 28.7792C31.2528 29.5842 31.5991 29.9861 31.5145 30.5737C31.421 31.2228 31.1944 31.3312 29.929 31.3312C28.5566 31.3312 28.46 31.391 28.5535 32.1804C28.6415 32.9205 28.8458 33.0431 30.1442 33.1352C32.3546 33.2925 33.2968 32.5571 33.2968 30.6743C33.2968 29.4358 33.1228 29.0391 32.2669 28.3278C31.7005 27.857 30.9348 27.377 30.5655 27.2612C29.7165 26.9953 29.3286 25.8472 29.8698 25.2031C30.1642 24.8526 30.6645 24.7724 31.6177 24.9232C32.8112 25.1118 32.9529 25.0588 32.9529 24.4232C32.9529 23.5129 31.9877 23.0092 30.2439 23.0092C29.2093 23.0092 28.732 23.1974 28.3303 23.7643ZM33.7837 24.4898C33.685 24.7439 33.6771 25.3937 33.7661 25.9334C33.8552 26.4735 33.9408 28.3291 33.9563 30.0574C33.9841 33.1549 33.9962 33.1994 34.8246 33.1994C35.5663 33.1994 35.6766 33.0312 35.7702 31.7599C35.872 30.3723 35.9246 30.3125 37.223 30.1056C39.2975 29.7751 40.0238 28.1865 39.1445 25.9022C38.5661 24.3988 34.2596 23.2646 33.7837 24.4898ZM40.1139 27.4895C40.0523 29.0421 40.0795 30.9236 40.174 31.6709L40.346 33.0296L42.3517 33.1321C44.1278 33.2232 44.3444 33.1647 44.2423 32.6226C44.177 32.2762 43.6477 31.8709 43.0219 31.6889L41.9167 31.3668L41.8191 28.1223C41.7276 25.0842 41.6736 24.8706 40.9735 24.7721C40.2645 24.6726 40.2198 24.8132 40.1139 27.4895ZM91.5789 25.4718C91.495 25.7055 91.3836 26.89 91.332 28.1043L91.2378 30.3122L90.3781 28.0048C89.5577 25.803 89.4714 25.7021 88.4869 25.7969L87.4553 25.8964L87.3576 29.5479C87.2655 32.998 87.2978 33.1994 87.9436 33.1994C88.5464 33.1994 88.6396 32.9348 88.729 30.9684L88.8308 28.7374L89.6774 30.8835C90.6051 33.2347 90.862 33.5262 92.0115 33.534C92.7505 33.5387 92.7879 33.4056 92.8498 30.5669C92.8853 28.9324 92.9293 27.0217 92.9478 26.321C92.9747 25.3044 92.8553 25.0472 92.3567 25.0472C92.0132 25.0472 91.6632 25.2385 91.5789 25.4718ZM44.8162 29.1953V33.0296L45.7732 33.1382L46.7305 33.2466L46.6328 29.4018C46.5362 25.5826 46.5297 25.5561 45.6759 25.4589L44.8162 25.3611V29.1953ZM48.0829 29.6328C48.0829 32.9728 48.1266 33.1994 48.7706 33.1994C49.3769 33.1994 49.4601 32.9684 49.4721 31.2463L49.4859 29.2931L50.2458 30.9925C51.3252 33.4062 51.4466 33.5391 52.5734 33.5391H53.5847V29.9725C53.5847 26.6325 53.5411 26.4059 52.897 26.4059C52.3066 26.4059 52.2086 26.6342 52.2041 28.0194C52.1955 30.6219 51.7526 30.7014 50.8307 28.2656C50.0801 26.283 49.9037 26.0662 49.0406 26.0662H48.0829V29.6328ZM81.9146 26.3261C81.7038 26.4633 80.8799 27.875 80.0832 29.463C78.5458 32.5282 77.999 33.3247 77.999 32.4997C77.999 32.1661 77.6335 32.0051 76.8815 32.0071L75.7639 32.0105L75.8609 29.3781C75.9562 26.7999 75.941 26.7456 75.1336 26.7456C74.3586 26.7456 74.2987 26.8879 74.1371 29.1165C74.0429 30.4209 74.0401 31.873 74.1313 32.3434C74.2932 33.1817 74.3603 33.1994 77.3467 33.1994H80.3968L80.9081 31.9905C81.394 30.8424 81.493 30.787 82.8884 30.8866C84.2209 30.9817 84.3736 31.0859 84.5325 32.0105C84.6728 32.8261 84.9025 33.0516 85.683 33.1399C86.489 33.2313 86.6266 33.143 86.476 32.6304C84.506 25.9409 84.5648 26.0659 83.3939 26.0713C82.7908 26.0744 82.1251 26.1889 81.9146 26.3261ZM98.667 26.8584C99.4159 28.482 97.7633 31.7215 96.5605 30.9871C96.186 30.7585 96.0918 26.6495 96.4532 26.2928C96.993 25.7592 98.3159 26.0972 98.667 26.8584ZM37.2584 26.8787C37.8144 27.2802 37.844 27.4334 37.4541 27.8978C36.9321 28.5187 36.7516 28.5513 36.0968 28.1417C35.8042 27.9582 35.7165 27.5805 35.862 27.1277C36.134 26.2813 36.3723 26.2388 37.2584 26.8787ZM54.1549 27.2721C54.2673 27.5618 54.7862 27.8832 55.3082 27.9861C56.3246 28.1872 56.6675 29.1743 56.6757 31.9256C56.6792 33.0567 56.7758 33.1994 57.5392 33.1994C58.4996 33.1994 58.5054 33.1793 58.4084 30.251L58.3386 28.1518L59.4834 28.0431C60.2454 27.9708 60.6666 27.7357 60.7423 27.34C60.8447 26.8061 60.506 26.7456 57.4033 26.7456C54.4255 26.7456 53.9785 26.8179 54.1549 27.2721ZM61.3966 27.0003C61.3213 27.1403 61.2243 28.5829 61.1817 30.2055L61.1043 33.1556L62.4165 33.2626C63.1383 33.3213 64.3862 33.3156 65.1901 33.25C66.3541 33.1552 66.6515 32.9997 66.6515 32.4857C66.6515 31.946 66.3947 31.8407 65.0791 31.8407C63.7734 31.8407 63.5258 31.7408 63.6207 31.2531C63.7119 30.7857 64.0334 30.6868 65.1929 30.7697C66.4047 30.856 66.6151 30.783 66.4414 30.3363C66.3245 30.0353 65.644 29.7058 64.8947 29.5876C62.9574 29.2816 63.1111 28.444 65.1042 28.444C66.5253 28.444 66.6515 28.3747 66.6515 27.5948C66.6515 26.765 66.5927 26.7456 64.0929 26.7456C62.6854 26.7456 61.4723 26.8604 61.3966 27.0003ZM67.6663 26.8305C67.657 26.8774 67.5786 28.1383 67.492 29.6328C67.4053 31.1274 67.2592 32.5513 67.167 32.7972C67.0491 33.1118 67.2763 33.2123 67.9342 33.1369C68.6962 33.0493 68.9389 32.7806 69.2505 31.678L69.6325 30.3264L70.5946 31.7629C71.3577 32.9015 71.7631 33.1994 72.5519 33.1994C73.536 33.1994 73.5409 33.1895 73.0175 32.2653C72.7266 31.7514 72.3098 31.0822 72.0911 30.7782C71.7744 30.337 71.8449 30.0353 72.4395 29.2887C73.36 28.1325 73.3813 27.5527 72.5199 27.0972C71.9618 26.8023 67.7179 26.569 67.6663 26.8305ZM70.7126 28.6539C70.4065 28.9562 69.9867 29.1002 69.7793 28.9735C69.0964 28.5567 69.3863 28.1043 70.3357 28.1043C71.1957 28.1043 71.2253 28.1474 70.7126 28.6539ZM83.5009 28.8037C83.5009 28.9796 83.1852 29.1233 82.7997 29.1233C82.2169 29.1233 82.1732 29.0431 82.5418 28.6495C82.9992 28.1607 83.5009 28.2412 83.5009 28.8037Z" fill="white"/>
<path d="M68.9847 62L66.9744 58.9331L64.8961 62H62L65.5264 56.9628L62.1193 52H65.1005L67.0426 54.9182L69.0358 52H71.8637L68.4566 56.8885L72 62H68.9847Z" fill="white"/>
<path fill-rule="evenodd" clip-rule="evenodd" d="M13.1761 67.1365C12.245 67.364 11.7434 67.7004 11.1406 68.5014C10.6364 69.1715 10.5848 69.3936 10.5895 70.8712C10.5937 72.1493 10.6888 72.6813 11.0294 73.3341C12.2562 75.6853 14.8012 76.2761 16.4613 74.595C17.3694 73.6753 17.7114 72.862 17.8167 71.3705C17.9343 69.7056 17.6404 68.7639 16.7581 67.9797C15.7515 67.0844 14.548 66.8011 13.1761 67.1365ZM1.76581 71.1817C0.307951 71.8519 -0.28281 73.3692 0.127114 75.3917C0.315926 76.3231 0.520091 76.6963 1.21074 77.3706C2.29317 78.4276 3.17144 78.6265 4.37569 78.0872C6.4295 77.1671 7.28543 74.2243 6.08218 72.2203C5.62859 71.4652 4.32265 70.7941 3.30682 70.7941C2.92301 70.7941 2.22957 70.9685 1.76581 71.1817ZM23.4589 71.2264C22.3069 71.8365 21.8477 72.7199 21.8535 74.3154C21.8684 78.4682 26.11 79.9008 27.971 76.3817C28.489 75.402 28.4581 73.0106 27.9178 72.2771C26.8288 70.7981 25.0559 70.3802 23.4589 71.2264ZM57.5304 77.0948C56.8805 77.4268 56.52 77.7918 56.1922 78.45C55.6391 79.5609 55.6297 80.1111 56.1457 81.1903C56.5792 82.0971 57.5151 82.7212 59.4889 83.4194C60.8593 83.9042 61.263 84.344 61.0096 85.0763C60.7135 85.9324 59.665 86.1086 57.936 85.5932L56.5579 85.1821L56.2622 86.061L55.9665 86.9399L56.6027 87.2785C57.5651 87.791 60.4952 87.8905 61.6351 87.4497C62.9528 86.9399 63.6191 85.9596 63.6191 84.5307C63.6191 82.6877 62.821 81.9293 59.6791 80.7869C58.1768 80.2406 57.9226 79.1674 59.1713 78.6435C59.7828 78.387 60.167 78.441 62.2982 79.082C62.475 79.1351 62.6782 78.8514 62.8708 78.2829C63.1224 77.5396 63.1264 77.3737 62.8957 77.2237C61.778 76.497 58.8394 76.4265 57.5304 77.0948ZM127.973 77.0252C125.784 78.0624 125.559 81.1869 127.587 82.383C128.044 82.6524 128.956 83.0711 129.614 83.3134C130.272 83.5557 130.979 83.9169 131.185 84.116C131.933 84.8382 131.113 85.9283 129.821 85.9283C129.562 85.9283 128.809 85.7577 128.147 85.549L126.943 85.1698L126.645 86.0547L126.347 86.9399L126.984 87.2785C127.946 87.791 130.876 87.8905 132.016 87.4497C133.334 86.9399 134 85.9596 134 84.5307C134 82.6877 133.202 81.9293 130.06 80.7869C128.625 80.2652 128.306 79.2076 129.427 78.6903C130.14 78.3614 130.755 78.4 131.915 78.8462L132.925 79.2349L133.112 78.7364C133.566 77.5259 133.55 77.3339 132.965 77.0502C132.657 76.9006 131.597 76.7437 130.611 76.7019C129.132 76.6389 128.668 76.6959 127.973 77.0252ZM34.4341 80.8301C34.2997 83.0233 34.1369 85.431 34.0721 86.1807L33.954 87.5436H35.1483H36.3426L36.4728 85.089C36.5446 83.739 36.61 81.8991 36.6181 81.0004L36.6333 79.3663L37.2189 81.5873C37.5411 82.8089 38.08 84.6486 38.4165 85.676L39.0286 87.5436H40.0022H40.9758L41.6728 85.2721C42.0562 84.0229 42.5752 82.1829 42.8262 81.1835L43.2824 79.3663L43.4076 82.193C43.4764 83.7477 43.5438 85.5877 43.5571 86.2817L43.5815 87.5436H44.8064H46.0314L45.9096 85.9788C45.8428 85.1181 45.6785 82.7105 45.5447 80.6282L45.3017 76.8424H43.675H42.048L41.4943 78.7101C41.1899 79.7372 40.7349 81.3955 40.4833 82.3949C40.0361 84.1723 39.9539 84.2361 39.7039 83.0007C39.6365 82.6675 39.2103 81.1457 38.7569 79.6187L37.9324 76.8424H36.3053H34.6782L34.4341 80.8301ZM47.9678 82.193V87.5436H51.3572H54.7467V86.5341V85.5245H52.6532H50.5597V81.1835V76.8424H49.2638H47.9678V82.193ZM69.7001 82.193V87.5436H70.9961H72.2921V85.6475V83.7516L73.7376 83.6706C76.3491 83.5242 77.7609 82.3035 77.7609 80.1913C77.7609 78.8385 77.2287 77.9182 76.0962 77.3117C75.3013 76.8861 74.964 76.8424 72.4602 76.8424H69.7001V82.193ZM79.2704 82.193V87.5436H82.5601H85.8499V86.5411V85.5387L83.8062 85.4811L81.7626 85.4236L81.7088 81.133L81.6549 76.8424H80.4626H79.2704V82.193ZM89.075 82.0416C88.0632 84.901 87.2378 87.309 87.2406 87.3922C87.2433 87.4754 87.8223 87.5436 88.5273 87.5436H89.8092L90.1301 86.4256L90.451 85.3077L92.2709 85.3656L94.0906 85.4236L94.423 86.4331L94.7552 87.4427L96.1095 87.503C97.1523 87.5493 97.4432 87.5028 97.374 87.3011C97.3246 87.1568 96.4834 84.7452 95.5046 81.9419L93.7254 76.8449L92.3199 76.8437L90.9147 76.8424L89.075 82.0416ZM98.0246 79.9216L99.8022 83.0007L99.8042 85.2721L99.8064 87.5436H101.102H102.398V85.3935V83.2436L104.285 80.0342L106.171 76.8251L104.735 76.8842L103.299 76.9434L102.3 78.8113C101.156 80.9509 101.312 80.9777 99.9566 78.4072L99.1315 76.8424H97.6892H96.2469L98.0246 79.9216ZM107.582 82.193V87.5436H111.171H114.76V86.635V85.7264H112.467H110.174V84.3131V82.8997H112.168H114.162V81.9911V81.0825H112.168H110.174V79.8711V78.6596H112.467H114.76V77.751V76.8424H111.171H107.582V82.193ZM116.554 82.1785V87.5436H117.85H119.146V85.6255V83.7073H119.719C120.249 83.7073 120.355 83.8499 121.15 85.6255L122.009 87.5436H123.469C124.271 87.5436 124.928 87.5067 124.928 87.4614C124.928 87.4162 124.379 86.443 123.708 85.2988C122.832 83.8043 122.565 83.1933 122.761 83.1293C123.312 82.9492 124.318 81.6566 124.446 80.9644C124.72 79.4836 124.25 78.2625 123.058 77.3597C122.571 76.9911 122.168 76.9359 119.531 76.8784L116.554 76.8134V82.1785ZM11.8801 78.2183C7.79505 79.2997 5.21946 82.699 4.72241 87.6654C4.39942 90.8921 5.00433 94.7903 6.11009 96.6093L6.52739 97.2958L7.104 96.4139C7.89035 95.2111 7.9703 94.6655 7.57992 93.1686C7.18255 91.6456 7.12673 87.9398 7.47823 86.4424C7.80422 85.0537 8.5822 83.5478 9.45109 82.6233C10.3319 81.6864 12.1483 80.7625 13.4724 80.5782C15.4058 80.3088 18.1823 81.4591 19.3539 83.0148C21.1515 85.4014 21.7201 89.6178 20.7535 93.3947C20.4554 94.5599 20.46 94.6522 20.8652 95.6056C21.0976 96.153 21.4497 96.7492 21.6477 96.9306C21.9877 97.2421 22.0365 97.1989 22.5254 96.1522C23.6852 93.6697 24.1005 89.894 23.5614 86.736C22.7868 82.1983 20.26 79.1904 16.3578 78.1611C14.8666 77.7678 13.517 77.785 11.8801 78.2183ZM74.7345 79.2262C75.2872 79.7859 75.2848 80.833 74.7295 81.2883C74.2849 81.6529 72.7955 81.9794 72.4793 81.7817C72.3764 81.7171 72.2921 80.9767 72.2921 80.1364V78.6083L73.3055 78.7069C73.9697 78.7715 74.4623 78.9506 74.7345 79.2262ZM121.576 79.2617C122.448 80.352 121.609 81.6883 120.052 81.6883H119.146V80.1483V78.6083L120.18 78.7089C120.932 78.782 121.313 78.9328 121.576 79.2617ZM93.4237 83.354C93.4251 83.4372 92.882 83.5054 92.2167 83.5054C91.1572 83.5054 91.02 83.4616 91.1125 83.1521C91.1707 82.9577 91.4572 82.0265 91.7495 81.0825L92.2807 79.3663L92.8509 81.2844C93.1645 82.3394 93.4221 83.2708 93.4237 83.354ZM0.352612 87.5941L0.419604 94.9133L1.03289 96.6533C2.55914 100.984 5.85907 104.168 10.1828 105.481C12.2155 106.099 15.6651 106.177 17.6621 105.651C21.4934 104.642 24.9943 101.819 26.5987 98.4467C27.9493 95.6076 28.0235 95.0221 28.0269 87.1903L28.0299 80.2749L26.7837 80.2781C25.6455 80.281 23.3676 80.689 23.1263 80.9331C23.0715 80.9888 23.2739 81.5455 23.5765 82.1702C24.1091 83.27 24.1471 83.3019 24.7822 83.1812L25.4379 83.0566L25.4355 88.4803C25.4329 94.4333 25.3339 95.1655 24.2371 97.3346C23.8997 98.0019 23.4011 98.8061 23.1287 99.1219C22.6713 99.6521 22.6 99.6737 22.1914 99.4025C19.1748 97.4004 17.8878 92.5158 19.2713 88.3193C19.6059 87.3039 19.618 87.0792 19.3798 86.3003C18.9852 85.0103 18.617 84.2937 18.3887 84.3706C17.973 84.5109 16.86 86.891 16.5269 88.3512C16.0822 90.3013 16.0821 93.6556 16.5265 95.3625C17.0219 97.2653 17.9594 98.9616 19.2689 100.325C20.5699 101.68 20.5793 101.619 18.9581 102.37C17.4285 103.078 15.9329 103.382 14.0733 103.363C12.128 103.343 11.1301 103.111 9.23536 102.237L7.88676 101.615L9.18831 100.249C10.7455 98.6159 11.5613 96.9794 12.0101 94.5884C12.6063 91.4126 11.9581 87.1103 10.574 85.0583C9.94236 84.1217 9.70949 84.2489 9.18233 85.8191C8.81726 86.9068 8.81766 86.9567 9.19868 88.3969C9.74936 90.4784 9.72583 93.8741 9.14963 95.452C8.59894 96.9598 7.6499 98.3296 6.64503 99.0667L5.83096 99.664L5.37917 99.2341C4.6923 98.5808 3.55165 96.2394 3.2145 94.7915C2.98781 93.8169 2.91324 92.2172 2.91105 88.2743L2.90806 83.0487L3.56023 83.1559C4.18289 83.2583 4.24151 83.2098 4.8552 82.0878L5.49819 80.9125L4.1139 80.5937C3.35247 80.4185 2.17972 80.2749 1.50762 80.2749H0.285621L0.352612 87.5941ZM36.1809 92.137C36.0639 92.4425 35.4924 93.9869 34.911 95.5695L33.8543 98.4467H34.599C35.2952 98.4467 35.3594 98.394 35.5827 97.6391L35.8216 96.8314H37.0781H38.3344L38.5734 97.6391C38.7924 98.3791 38.8701 98.4467 39.5021 98.4467C39.8816 98.4467 40.192 98.4087 40.192 98.3625C40.192 98.2674 38.8613 94.5062 38.2038 92.7428C37.7919 91.6381 37.7374 91.5818 37.0823 91.5818C36.5158 91.5818 36.3561 91.6801 36.1809 92.137ZM45.4365 91.9767C44.9717 92.2638 44.7616 92.5744 44.6595 93.1252C44.426 94.3853 44.8698 94.8883 47.0207 95.8011C47.9907 96.2128 48.2312 96.6858 47.7285 97.1949C47.4404 97.4866 46.1955 97.5125 45.4909 97.2411C45.0401 97.0677 44.9673 97.1034 44.8559 97.5534C44.6968 98.1947 44.7071 98.2034 45.9012 98.4328C47.8549 98.8079 49.3635 97.9831 49.3635 96.5397C49.3635 95.5909 48.8072 95.005 47.3449 94.4134C46.0442 93.8872 45.7146 93.4539 46.1814 92.8845C46.4555 92.5499 47.5028 92.4991 48.2433 92.7842C48.668 92.9477 48.7645 92.9118 48.8788 92.5471C49.0763 91.9172 48.4864 91.5816 47.182 91.5826C46.4354 91.583 45.8657 91.7116 45.4365 91.9767ZM54.713 91.8794C53.9581 92.3105 53.6475 93.3659 54.0142 94.2545C54.2379 94.7968 54.5256 95.0375 55.3698 95.389C56.9578 96.0502 57.0396 96.1171 57.0396 96.7525C57.0396 97.297 56.9813 97.3404 56.1721 97.3992C55.6947 97.4339 55.0527 97.3735 54.7453 97.2649C54.257 97.0927 54.1721 97.1226 54.0742 97.5014C53.9243 98.0824 54.1386 98.2573 55.2611 98.4697C57.1442 98.8259 58.5349 97.9942 58.5349 96.5114C58.5349 95.4772 57.8957 94.8303 56.3653 94.3154C54.3607 93.6413 55.1269 92.1794 57.1923 92.7377C57.8973 92.9283 57.9818 92.9085 58.1306 92.5168C58.2215 92.2774 58.2131 91.9999 58.1116 91.8911C57.7938 91.5501 55.3048 91.5416 54.713 91.8794ZM64.9292 91.9355C63.839 92.4985 63.4428 93.2162 63.3553 94.7881C63.3015 95.7508 63.3689 96.3404 63.5794 96.7503C64.8108 99.1479 68.2132 99.1554 69.4364 96.7632C69.889 95.878 69.8499 93.9988 69.3614 93.1518C68.5071 91.6702 66.5061 91.1212 64.9292 91.9355ZM76.0803 91.9442C74.0556 93.065 73.9136 96.6317 75.8404 97.9647C76.6076 98.4956 77.7387 98.6876 78.7378 98.4566C79.6653 98.2422 79.6799 98.2288 79.5473 97.7158C79.4538 97.3532 79.3182 97.3156 78.3861 97.3939C76.6043 97.5436 75.724 96.5631 75.9355 94.6641C76.1152 93.0493 77.7429 92.0734 79.0634 92.7892C79.3653 92.9528 79.451 92.896 79.5585 92.4625C79.63 92.174 79.6344 91.8832 79.5684 91.8164C79.5024 91.7494 78.8475 91.664 78.1132 91.6264C77.0816 91.5735 76.6196 91.6458 76.0803 91.9442ZM84.4542 95.0142V98.4467H85.1521H85.8499V95.0142V91.5818H85.1521H84.4542V95.0142ZM92.928 91.8219C92.8752 91.9674 92.3375 93.4381 91.7334 95.0902C91.1292 96.742 90.635 98.1731 90.635 98.2702C90.635 98.3673 90.9349 98.4467 91.3013 98.4467C91.9058 98.4467 91.9896 98.372 92.2065 97.6391L92.4454 96.8314H93.7018H94.9581L95.1972 97.6391C95.4161 98.3791 95.4939 98.4467 96.1259 98.4467C96.5053 98.4467 96.8157 98.374 96.8157 98.2854C96.8157 98.1967 96.2876 96.6747 95.642 94.9034L94.4682 91.6827L93.7463 91.62C93.2853 91.58 92.9895 91.6529 92.928 91.8219ZM100.242 92.137C100.299 92.6454 100.385 92.6975 101.252 92.7539L102.199 92.8155V95.6311V98.4467H102.897H103.595V95.62V92.7932H104.492C105.356 92.7932 105.389 92.7708 105.389 92.1875V91.5818H102.784H100.179L100.242 92.137ZM109.975 95.0142V98.4467H110.673H111.37V95.0142V91.5818H110.673H109.975V95.0142ZM117.952 91.9563C116.886 92.5354 116.306 93.8074 116.399 95.3654C116.52 97.4065 117.654 98.5044 119.642 98.5044C121.032 98.5044 121.963 97.9276 122.548 96.7054C123.365 94.9955 122.724 92.6111 121.256 91.9061C120.346 91.4687 118.806 91.4921 117.952 91.9563ZM127.919 95.0142V98.4467H128.517H129.115L129.118 95.9733L129.12 93.4999L129.577 94.3076C129.828 94.7518 130.508 95.8649 131.089 96.7809C132.071 98.3316 132.191 98.4467 132.823 98.4467H133.502V95.0142V91.5818H132.783H132.064L132.135 94.0047C132.174 95.3373 132.194 96.4276 132.181 96.4276C132.167 96.4276 131.464 95.3373 130.619 94.0047C129.232 91.819 129.024 91.5818 128.5 91.5818H127.919V95.0142ZM67.6342 93.0688C68.1039 93.4779 68.1942 93.7327 68.2642 94.8456C68.3382 96.0242 68.2959 96.2049 67.809 96.791C67.1016 97.6423 66.0222 97.696 65.2987 96.916C64.8821 96.467 64.8154 96.1996 64.8154 94.9805C64.8154 93.6808 64.8608 93.5264 65.3748 93.0785C66.0854 92.4595 66.9306 92.4559 67.6342 93.0688ZM120.696 92.996C121.31 93.5752 121.59 94.7932 121.353 95.8586C121.121 96.9077 120.537 97.4371 119.614 97.4371C118.332 97.4371 117.524 96 117.841 94.2849C118.12 92.7801 119.708 92.0633 120.696 92.996ZM37.1491 95.7841C36.7162 95.8188 36.3177 95.8019 36.263 95.7466C36.1703 95.6527 36.7234 93.7313 36.965 93.3083C37.0253 93.2029 37.2683 93.7026 37.5052 94.4188L37.9356 95.7209L37.1491 95.7841ZM93.7728 95.7841C93.34 95.8188 92.9512 95.8118 92.9085 95.7686C92.8658 95.7254 93.0249 95.1079 93.2622 94.3966L93.6937 93.103L94.1265 94.4119L94.5594 95.7209L93.7728 95.7841Z" fill="white"/>
</svg>
