<svg width="30" height="30" viewBox="0 0 30 30" fill="none" xmlns="http://www.w3.org/2000/svg">
<path d="M28.9466 6.62002C27.8986 7.06539 26.7887 7.35951 25.6523 7.49297C26.8502 6.79791 27.747 5.70676 28.1766 4.42158C27.0436 5.05684 25.8103 5.50805 24.5261 5.75723C23.6625 4.86521 22.5186 4.27366 21.2717 4.07434C20.0248 3.87503 18.7447 4.07911 17.6301 4.6549C16.5154 5.2307 15.6285 6.14603 15.1069 7.25887C14.5853 8.37172 14.4582 9.61987 14.7454 10.8097C9.974 10.594 5.74425 8.37776 2.91538 5.02977C2.40042 5.8764 2.13109 6.84158 2.13575 7.82371C2.13505 8.73672 2.36758 9.63578 2.81269 10.441C3.25779 11.2463 3.90171 11.9328 4.68725 12.4397C3.77692 12.4131 2.88642 12.1761 2.09025 11.7486V11.8154C2.08997 13.097 2.54806 14.3392 3.38687 15.3315C4.22569 16.3239 5.39363 17.0053 6.69275 17.2604C6.20065 17.3875 5.69361 17.4526 5.18425 17.4541C4.81588 17.4541 4.46413 17.4194 4.11325 17.3568C4.48296 18.4596 5.19913 19.4235 6.16207 20.1144C7.12501 20.8053 8.28681 21.1888 9.48575 21.2115C7.45436 22.7494 4.94781 23.5837 2.36762 23.5808C1.91062 23.5825 1.45392 23.5577 1 23.5063C3.63208 25.1367 6.69307 26.0023 9.81912 26C20.3778 26 26.1475 17.5454 26.1475 10.2235C26.1475 9.99001 26.1475 9.75232 26.1291 9.51378C27.2578 8.7318 28.2304 7.75854 29 6.64117L28.9466 6.62002Z" fill="white"/>
</svg>
