<svg width="433" height="69" viewBox="0 0 433 69" fill="none" xmlns="http://www.w3.org/2000/svg">
<path fill-rule="evenodd" clip-rule="evenodd" d="M75.4918 0.303747C70.2321 1.45966 64.7293 5.72429 62.2865 10.5379C60.4118 14.2321 59.6501 18.9355 60.2958 22.8282L60.8015 25.877L59.0189 25.4965C58.0381 25.2871 56.6171 25.1016 55.8603 25.0841C55.1036 25.0672 54.4849 24.9151 54.4849 24.747C54.4849 24.579 52.4032 23.7048 49.8584 22.8047C40.8624 19.6227 31.9904 14.4595 25.7964 8.80058C24.0223 7.1799 22.3578 5.85394 22.0972 5.85394C21.1769 5.85394 13.6809 11.4854 10.5954 14.4949C8.8763 16.1719 7.46934 17.9277 7.46934 18.3975C7.46934 18.8667 6.98618 19.4038 6.39598 19.5903C5.12306 19.9932 3.55554 21.6767 1.40433 24.951C-0.146183 27.3107 -0.162188 27.4005 0.179925 31.683C0.370488 34.0702 0.943678 37.9443 1.45435 40.2916C3.1279 47.9945 7.47734 57.55 9.55553 58.0921C10.2793 58.2806 10.3798 58.4606 9.92065 58.7433C9.20541 59.1842 11.6872 62.5387 15.1964 65.8753C18.7956 69.2972 19.0647 69.3969 22.0817 68.4265C23.5356 67.9593 24.9956 67.2372 25.3262 66.8223C25.6569 66.4074 26.2631 66.1965 26.6732 66.353C27.0833 66.5101 28.1337 66.4338 29.008 66.184C38.7432 63.4004 55.3542 61.3579 71.9907 60.8991C81.0232 60.6503 83.9331 60.4124 84.5578 59.8718C85.2586 59.2659 85.4096 59.2674 85.6457 59.8803C85.8543 60.4229 87.5063 60.6732 92.5845 60.932C111 61.872 128.16 64.6486 137.82 68.252C140.367 69.2019 140.64 69.2169 141.787 68.4679C145.418 66.0952 151.119 58.9448 154.134 52.9782C156.068 49.1514 158.044 43.328 157.517 43.0038C157.256 42.8428 157.532 41.7292 158.145 40.4716C158.98 38.7567 159.111 38.0261 158.701 37.3768C158.302 36.7455 158.334 36.398 158.827 36.0259C159.228 35.7238 159.625 33.8936 159.828 31.4123C160.163 27.3002 160.163 27.2992 158.381 24.6229C155.97 21.003 148.111 12.8353 147.039 12.8353C146.564 12.8353 145.945 12.3302 145.662 11.7133C145.379 11.096 143.553 9.49622 141.605 8.15829L138.062 5.72528L134.911 8.57718C130.709 12.38 123.894 16.8835 118.31 19.5479C113.438 21.8722 104.554 24.9789 101.22 25.5245L99.1887 25.8566L99.6923 22.8177C101.115 14.2426 96.1452 5.07701 88.165 1.5584C85.0995 0.206506 78.7799 -0.418826 75.4918 0.303747ZM85.9878 6.84729C90.5123 9.14915 93.6318 13.4726 94.3006 18.3696C94.9498 23.1294 91.9983 29.1174 87.7304 31.6985C86.5185 32.4315 85.5196 33.2149 85.5111 33.4398C85.5021 33.6642 87.3523 33.7116 89.6215 33.5451C95.9996 33.0773 97.9993 32.7636 97.9993 32.2301C97.9993 31.9448 98.6915 31.869 99.6533 32.0491C101.406 32.3767 106.822 31.49 113.632 29.7597C121.112 27.8587 130.703 23.9058 136.145 20.4804L138.083 19.2612L142.457 23.5283C144.862 25.875 147.121 27.7954 147.477 27.7954C147.839 27.7954 147.999 28.1165 147.841 28.5274C147.686 28.9299 147.775 29.3921 148.038 29.5542C148.752 29.994 148.616 34.2332 147.755 38.3597C146.717 43.3404 145.192 47.8564 143.218 51.7969C142.306 53.6155 141.67 55.2113 141.802 55.3439C141.935 55.4761 141.408 56.262 140.632 57.0903C139.267 58.5469 139.13 58.5823 136.491 58.1599C122.229 55.8775 106.712 55.0208 79.7432 55.0268C53.1159 55.0332 39.3614 55.7842 25.2252 58.0048C19.948 58.8336 20.5327 59.2196 17.2406 52.7289C15.0003 48.3117 12.8471 42.1132 12.2164 38.2675C12.0138 37.0333 11.7012 35.9113 11.5212 35.7741C11.3416 35.637 11.2791 34.2008 11.3831 32.5826L11.5717 29.641L16.1397 24.933C21.716 19.1864 22.0742 18.9685 23.8628 20.2291C28.9444 23.8105 42.0968 28.9109 51.0557 30.7745C60.1613 32.6689 74.51 34.2966 74.4755 33.4314C74.467 33.2115 73.4682 32.4315 72.2563 31.6985C69.4773 30.018 67.1916 26.8978 66.1682 23.3882C64.0395 16.0876 69.0062 7.76235 76.6582 5.80457C79.0575 5.19071 83.7646 5.71681 85.9878 6.84729ZM73.6537 13.3714C73.082 13.9414 73.7888 17.822 74.4645 17.822C74.6581 17.822 75.1597 16.7559 75.5794 15.4533L76.3431 13.0847L76.9978 14.456C77.8116 16.1589 78.0562 16.1639 79.071 14.4969L79.8808 13.1664L80.7496 14.842L81.6189 16.5175L82.5172 14.8011C83.475 12.9705 83.4165 12.9226 84.6504 16.5349L85.3176 18.4892L85.9608 16.2003C86.3139 14.9417 86.4535 13.6691 86.2699 13.3734C85.8212 12.6498 74.3795 12.6478 73.6537 13.3714ZM84.5133 23.5567C83.5675 26.4595 83.467 26.5308 82.4656 25.0098L81.5548 23.6255L80.9441 24.9625C80.1824 26.6285 79.6332 26.653 78.902 25.0527C78.5889 24.3671 78.1477 23.806 77.9221 23.806C77.6961 23.806 77.3704 24.3671 77.1979 25.0527C76.7442 26.8534 76.119 26.5881 75.4328 24.3047C75.1032 23.2076 74.6816 22.31 74.496 22.31C73.8363 22.31 72.9905 25.9997 73.5272 26.5363C73.8088 26.8175 76.3691 27.1232 79.2176 27.216C86.2994 27.4468 87.3973 26.7542 85.8067 23.058L85.163 21.562L84.5133 23.5567ZM133.355 33.5889C131.507 34.1549 130.702 34.7424 129.889 36.1162C128.842 37.8845 128.82 37.8935 128.002 36.8862C127.021 35.6789 125.664 35.4659 122.187 35.9751C119.823 36.3212 119.59 36.4762 119.305 37.8999C119.133 38.7592 119.22 39.5869 119.5 39.76C119.779 39.9315 120.115 41.9661 120.248 44.2809L120.489 48.4902L122.293 48.4294C125.609 48.3177 128.489 45.0798 128.641 41.2934C128.716 39.4049 128.764 39.3406 129.321 40.3848C129.651 41.0057 130.892 41.8499 132.091 42.2708C133.71 42.8393 134.304 43.3315 134.43 44.2091C134.635 45.6348 133.807 46.2282 131.6 46.2387C130.166 46.2452 129.962 46.3993 130.1 47.3682C130.233 48.3047 130.618 48.5156 132.427 48.6453C135.725 48.8821 137.012 47.812 137.012 44.834C137.012 41.9855 136.383 41.067 133.893 40.2806C131.717 39.5939 131.327 39.1297 131.765 37.7523C131.976 37.0911 132.842 36.5461 134.299 36.1576C136.246 35.638 136.512 35.4001 136.512 34.1749C136.512 32.5886 136.579 32.6011 133.355 33.5889ZM23.7532 34.888C22.9535 36.0259 22.7819 38.3547 23.3856 39.8712C23.5727 40.3419 24.8101 41.4126 26.1345 42.2503C28.0041 43.4322 28.5078 44.0221 28.3848 44.8848C28.2487 45.8378 27.9191 45.9968 26.0785 45.9968C24.0823 45.9968 23.9418 46.0846 24.0778 47.2435C24.2059 48.3301 24.503 48.5101 26.3916 48.6453C29.6067 48.8762 30.9771 47.7965 30.9771 45.0324C30.9771 43.2143 30.724 42.6318 29.4791 41.5876C28.6553 40.8965 27.5415 40.1918 27.0043 40.0218C25.7694 39.6313 25.2052 37.9458 25.9925 37.0003C26.4206 36.4857 27.1483 36.368 28.5348 36.5894C30.2709 36.8662 30.4769 36.7884 30.4769 35.8554C30.4769 34.519 29.073 33.7794 26.5366 33.7794C25.0316 33.7794 24.3374 34.0557 23.7532 34.888ZM31.6853 35.9531C31.5418 36.3261 31.5303 37.2801 31.6598 38.0725C31.7894 38.8654 31.9139 41.5896 31.9364 44.1268C31.9769 48.6742 31.9944 48.7395 33.1993 48.7395C34.2782 48.7395 34.4388 48.4927 34.5748 46.6262C34.7228 44.5891 34.7994 44.5013 36.688 44.1976C39.7055 43.7124 40.7618 41.3802 39.4829 38.0266C38.6416 35.8195 32.3776 34.1544 31.6853 35.9531ZM40.8929 40.3569C40.8034 42.6363 40.8429 45.3984 40.9804 46.4955L41.2305 48.4902L44.148 48.6408C46.7313 48.7744 47.0464 48.6887 46.8979 47.8928C46.8028 47.3841 46.0331 46.7892 45.1228 46.5219L43.5153 46.0492L43.3732 41.2859C43.2402 36.8258 43.1616 36.5121 42.1433 36.3675C41.112 36.2214 41.0469 36.4279 40.8929 40.3569ZM115.751 37.3948C115.629 37.7379 115.467 39.4767 115.392 41.2595L115.255 44.5008L114.005 41.1134C112.811 37.881 112.686 37.7329 111.254 37.872L109.753 38.0181L109.611 43.3788C109.477 48.4438 109.524 48.7395 110.463 48.7395C111.34 48.7395 111.476 48.3511 111.606 45.4643L111.754 42.189L112.985 45.3396C114.335 48.7914 114.708 49.2192 116.38 49.2307C117.455 49.2377 117.51 49.0422 117.6 44.8748C117.651 42.4752 117.715 39.6702 117.742 38.6415C117.781 37.149 117.608 36.7715 116.883 36.7715C116.383 36.7715 115.874 37.0522 115.751 37.3948ZM47.7327 42.8612V48.4902L49.1246 48.6498L50.5171 48.8088L50.375 43.1644C50.2345 37.5574 50.225 37.5185 48.9831 37.3758L47.7327 37.2322V42.8612ZM52.4842 43.5035C52.4842 48.4069 52.5477 48.7395 53.4846 48.7395C54.3663 48.7395 54.4874 48.4004 54.5049 45.8722L54.5249 43.0048L55.6303 45.4997C57.2003 49.0432 57.3768 49.2382 59.0159 49.2382H60.4869V44.0022C60.4869 39.0987 60.4233 38.7661 59.4865 38.7661C58.6278 38.7661 58.4852 39.1012 58.4787 41.1348C58.4662 44.9556 57.822 45.0723 56.481 41.4964C55.3892 38.5856 55.1326 38.2675 53.8772 38.2675H52.4842V43.5035ZM101.694 38.6489C101.387 38.8504 100.189 40.9229 99.0301 43.2542C96.7939 47.7542 95.9986 48.9235 95.9986 47.7123C95.9986 47.2226 95.4669 46.9862 94.3731 46.9892L92.7475 46.9942L92.8886 43.1295C93.0271 39.3446 93.0051 39.2648 91.8307 39.2648C90.7034 39.2648 90.6163 39.4737 90.3813 42.7455C90.2442 44.6604 90.2402 46.7922 90.3728 47.4829C90.6083 48.7136 90.7059 48.7395 95.0498 48.7395H99.4863L100.23 46.9648C100.937 45.2793 101.081 45.198 103.11 45.3441C105.049 45.4837 105.271 45.6368 105.502 46.9942C105.706 48.1915 106.04 48.5226 107.175 48.6523C108.348 48.7864 108.548 48.6567 108.329 47.9043C105.463 38.0835 105.549 38.267 103.846 38.2749C102.968 38.2794 102 38.4475 101.694 38.6489ZM126.061 39.4304C127.15 41.814 124.747 46.5698 122.997 45.4917C122.452 45.1561 122.315 39.1237 122.841 38.6001C123.626 37.8167 125.55 38.3128 126.061 39.4304ZM36.7395 39.4603C37.5483 40.0497 37.5913 40.2746 37.0241 40.9563C36.2649 41.8679 36.0023 41.9157 35.05 41.3143C34.6243 41.0451 34.4968 40.4905 34.7083 39.8258C35.104 38.5831 35.4506 38.5208 36.7395 39.4603ZM61.3161 40.0377C61.4797 40.4631 62.2345 40.9348 62.9937 41.0859C64.4722 41.3812 64.9708 42.8303 64.9828 46.8695C64.9879 48.5301 65.1284 48.7395 66.2388 48.7395C67.6357 48.7395 67.6442 48.7101 67.5032 44.4111L67.4017 41.3293L69.0667 41.1697C70.1751 41.0635 70.7878 40.7184 70.8978 40.1375C71.0469 39.3536 70.5542 39.2648 66.0412 39.2648C61.7098 39.2648 61.0596 39.371 61.3161 40.0377ZM71.8496 39.6388C71.7401 39.8443 71.599 41.9621 71.537 44.3442L71.4245 48.6752L73.3331 48.8323C74.383 48.9185 76.1981 48.9101 77.3674 48.8138C79.0605 48.6747 79.4932 48.4463 79.4932 47.6918C79.4932 46.8994 79.1195 46.7449 77.2059 46.7449C75.3068 46.7449 74.9466 46.5982 75.0847 45.8821C75.2172 45.196 75.6849 45.0509 77.3715 45.1725C79.134 45.2992 79.4401 45.192 79.1876 44.5362C79.0175 44.0944 78.0277 43.6107 76.9378 43.4372C74.1199 42.9879 74.3435 41.7582 77.2424 41.7582C79.3096 41.7582 79.4932 41.6564 79.4932 40.5115C79.4932 39.2932 79.4076 39.2648 75.7714 39.2648C73.7242 39.2648 71.9597 39.4334 71.8496 39.6388ZM80.9691 39.3895C80.9556 39.4583 80.8416 41.3094 80.7156 43.5035C80.5895 45.6976 80.3769 47.7881 80.2429 48.1491C80.0713 48.6109 80.402 48.7585 81.3588 48.6478C82.4671 48.5191 82.8203 48.1247 83.2734 46.506L83.8291 44.5218L85.2285 46.6307C86.3384 48.3022 86.9281 48.7395 88.0755 48.7395C89.507 48.7395 89.514 48.7251 88.7527 47.3682C88.3296 46.6137 87.7234 45.6313 87.4053 45.185C86.9446 44.5372 87.0472 44.0944 87.9119 42.9983C89.2509 41.3009 89.2819 40.4496 88.029 39.7809C87.2172 39.3481 81.0442 39.0055 80.9691 39.3895ZM85.4001 42.0663C84.955 42.5101 84.3443 42.7216 84.0427 42.5356C83.0493 41.9237 83.471 41.2595 84.8519 41.2595C86.1028 41.2595 86.1459 41.3228 85.4001 42.0663ZM104.001 42.2862C104.001 42.5446 103.542 42.7555 102.981 42.7555C102.134 42.7555 102.07 42.6378 102.606 42.0599C103.272 41.3423 104.001 41.4604 104.001 42.2862Z" fill="white"/>
<path d="M195.477 41L192.462 37.013L189.344 41H185L190.29 34.4517L185.179 28H189.651L192.564 31.7937L195.554 28H199.796L194.685 34.355L200 41H195.477Z" fill="white"/>
<path fill-rule="evenodd" clip-rule="evenodd" d="M245.452 3.71698C244.007 4.07873 243.228 4.61349 242.293 5.88683C241.51 6.95217 241.43 7.30525 241.438 9.65421C241.444 11.686 241.592 12.5318 242.12 13.5696C244.024 17.3074 247.975 18.2466 250.552 15.5741C251.962 14.112 252.492 12.8191 252.656 10.448C252.838 7.80117 252.382 6.3041 251.013 5.05741C249.45 3.63417 247.582 3.18383 245.452 3.71698ZM227.741 10.1479C225.478 11.2132 224.561 13.6254 225.197 16.8407C225.49 18.3214 225.807 18.9146 226.879 19.9867C228.56 21.667 229.923 21.9832 231.792 21.1258C234.98 19.6631 236.309 14.9848 234.441 11.799C233.737 10.5985 231.71 9.53159 230.133 9.53159C229.537 9.53159 228.461 9.80892 227.741 10.1479ZM261.414 10.2188C259.626 11.1888 258.913 12.5931 258.922 15.1295C258.945 21.7315 265.529 24.0089 268.418 18.4145C269.222 16.8571 269.174 13.0553 268.335 11.8892C266.645 9.53801 263.893 8.87358 261.414 10.2188ZM314.301 19.5482C313.292 20.0759 312.732 20.6562 312.224 21.7026C311.365 23.4687 311.351 24.3434 312.152 26.059C312.824 27.5006 314.277 28.4927 317.341 29.6027C319.468 30.3734 320.095 31.0725 319.701 32.2367C319.242 33.5976 317.614 33.8778 314.93 33.0584L312.791 32.4049L312.332 33.8021L311.873 35.1993L312.861 35.7376C314.355 36.5523 318.903 36.7105 320.672 36.0098C322.718 35.1993 323.752 33.641 323.752 31.3694C323.752 28.4394 322.513 27.2338 317.636 25.4177C315.304 24.5491 314.91 22.8431 316.848 22.0101C317.797 21.6025 318.394 21.6882 321.702 22.7073C321.976 22.7917 322.292 22.3407 322.591 21.4369C322.981 20.2553 322.987 19.9915 322.629 19.753C320.894 18.5978 316.333 18.4857 314.301 19.5482ZM423.645 19.4375C420.247 21.0863 419.898 26.0536 423.046 27.9551C423.754 28.3833 425.17 29.049 426.191 29.4342C427.213 29.8193 428.31 30.3936 428.63 30.7101C429.791 31.8582 428.518 33.5912 426.514 33.5912C426.111 33.5912 424.942 33.32 423.914 32.9881L422.046 32.3853L421.584 33.7921L421.121 35.1993L422.109 35.7376C423.603 36.5523 428.151 36.7105 429.92 36.0098C431.966 35.1993 433 33.641 433 31.3694C433 28.4394 431.761 27.2338 426.884 25.4177C424.657 24.5883 424.162 22.907 425.902 22.0846C427.009 21.5617 427.963 21.623 429.764 22.3324L431.331 22.9503L431.622 22.1578C432.327 20.2335 432.301 19.9282 431.394 19.4773C430.916 19.2394 429.271 18.99 427.739 18.9236C425.444 18.8234 424.723 18.9139 423.645 19.4375ZM278.45 25.4864C278.241 28.9729 277.989 32.8006 277.888 33.9924L277.705 36.1591H279.559H281.412L281.614 32.2569C281.726 30.1108 281.827 27.1857 281.84 25.757L281.864 23.1593L282.773 26.6901C283.273 28.632 284.109 31.5568 284.632 33.19L285.582 36.1591H287.093H288.604L289.686 32.548C290.281 30.5621 291.087 27.637 291.477 26.0481L292.185 23.1593L292.379 27.653C292.486 30.1246 292.59 33.0497 292.611 34.1529L292.649 36.1591H294.55H296.452L296.263 33.6715C296.159 32.3031 295.904 28.4757 295.696 25.1654L295.319 19.147H292.794H290.269L289.409 22.1161C288.937 23.7489 288.23 26.3851 287.84 27.974C287.146 30.7996 287.018 30.9011 286.63 28.937C286.525 28.4073 285.864 25.9881 285.16 23.5605L283.88 19.147H281.354H278.829L278.45 25.4864ZM299.457 27.653V36.1591H304.719H309.98V34.5542V32.9492H306.73H303.481V26.0481V19.147H301.469H299.457V27.653ZM333.191 27.653V36.1591H335.203H337.215V33.1447V30.1307L339.458 30.002C343.512 29.7693 345.703 27.8286 345.703 24.4708C345.703 22.3202 344.877 20.8572 343.12 19.8929C341.886 19.2163 341.362 19.147 337.475 19.147H333.191V27.653ZM348.047 27.653V36.1591H353.153H358.26V34.5654V32.9717L355.087 32.8802L351.915 32.7888L351.832 25.9679L351.748 19.147H349.897H348.047V27.653ZM363.266 27.4123C361.695 31.958 360.414 35.7861 360.418 35.9183C360.423 36.0506 361.321 36.1591 362.416 36.1591H364.405L364.904 34.3818L365.401 32.6045L368.226 32.6966L371.051 32.7888L371.567 34.3937L372.083 35.9986L374.185 36.0946C375.804 36.1681 376.255 36.0942 376.148 35.7736C376.071 35.5441 374.765 31.7103 373.246 27.2537L370.484 19.1508L368.303 19.1489L366.121 19.147L363.266 27.4123ZM377.158 24.042L379.917 28.937L379.92 32.548L379.923 36.1591H381.935H383.947V32.7409V29.3231L386.875 24.2211L389.802 19.1194L387.573 19.2134L385.344 19.3075L383.794 22.2769C382.019 25.6783 382.261 25.721 380.156 21.6346L378.876 19.147H376.637H374.398L377.158 24.042ZM391.993 27.653V36.1591H397.564H403.135V34.7147V33.2702H399.576H396.017V31.0233V28.7765H399.111H402.206V27.332V25.8876H399.111H396.017V23.9617V22.0358H399.576H403.135V20.5914V19.147H397.564H391.993V27.653ZM405.92 27.6299V36.1591H407.932H409.943V33.1097V30.0604H410.832C411.655 30.0604 411.82 30.287 413.054 33.1097L414.388 36.1591H416.653C417.899 36.1591 418.918 36.1003 418.918 36.0284C418.918 35.9565 418.066 34.4094 417.025 32.5904C415.665 30.2145 415.251 29.2432 415.555 29.1414C416.409 28.8551 417.971 26.8002 418.17 25.6998C418.596 23.3457 417.866 21.4044 416.015 19.9693C415.259 19.3832 414.634 19.2956 410.541 19.2041L405.92 19.1007V27.6299ZM243.441 21.3341C237.1 23.0533 233.102 28.4574 232.33 36.3526C231.829 41.4823 232.768 47.6795 234.484 50.5712L235.132 51.6626L236.027 50.2605C237.248 48.3484 237.372 47.4811 236.766 45.1013C236.149 42.6802 236.062 36.7888 236.608 34.4084C237.114 32.2007 238.322 29.8068 239.67 28.337C241.038 26.8477 243.857 25.3789 245.912 25.0858C248.913 24.6576 253.223 26.4862 255.042 28.9594C257.832 32.7534 258.715 39.4565 257.214 45.4609C256.752 47.3132 256.759 47.4599 257.388 48.9756C257.749 49.8458 258.295 50.7937 258.602 51.0819C259.13 51.5772 259.206 51.5085 259.965 49.8445C261.765 45.898 262.41 39.8956 261.573 34.8751C260.371 27.6614 256.448 22.8797 250.391 21.2433C248.077 20.618 245.982 20.6453 243.441 21.3341ZM341.006 22.9365C341.864 23.8263 341.86 25.4909 340.998 26.2147C340.308 26.7944 337.996 27.3134 337.505 26.9992C337.345 26.8965 337.215 25.7194 337.215 24.3835V21.9543L338.788 22.1109C339.819 22.2136 340.583 22.4984 341.006 22.9365ZM413.715 22.993C415.068 24.7263 413.766 26.8506 411.35 26.8506H409.943V24.4024V21.9543L411.548 22.1141C412.716 22.2303 413.307 22.4701 413.715 22.993ZM370.016 29.4987C370.018 29.6309 369.175 29.7394 368.142 29.7394C366.498 29.7394 366.285 29.6698 366.428 29.1777C366.519 28.8686 366.963 27.3882 367.417 25.8876L368.242 23.1593L369.127 26.2086C369.614 27.8857 370.013 29.3664 370.016 29.4987ZM225.547 36.2393L225.651 47.875L226.603 50.6412C228.972 57.526 234.095 62.5876 240.806 64.6756C243.961 65.6571 249.316 65.7813 252.416 64.9452C258.363 63.3406 263.797 58.8539 266.288 53.4922C268.384 48.9788 268.499 48.048 268.504 35.5974L268.509 24.6037L266.575 24.6088C264.808 24.6133 261.272 25.262 260.898 25.6501C260.812 25.7387 261.127 26.6236 261.596 27.6168C262.423 29.3651 262.482 29.4159 263.468 29.2239L264.486 29.0259L264.482 37.6481C264.478 47.112 264.324 48.2759 262.622 51.7242C262.098 52.7851 261.324 54.0635 260.901 54.5655C260.191 55.4084 260.081 55.4428 259.446 55.0117C254.764 51.8288 252.766 44.0636 254.914 37.3923C255.433 35.7781 255.452 35.4208 255.082 34.1825C254.47 32.1317 253.898 30.9925 253.544 31.1148C252.898 31.3379 251.171 35.1217 250.654 37.443C249.963 40.5431 249.963 45.8756 250.653 48.5892C251.422 51.6141 252.877 54.3107 254.91 56.4786C256.929 58.6324 256.944 58.5358 254.427 59.7286C252.053 60.8543 249.732 61.338 246.845 61.3078C243.825 61.2763 242.277 60.9069 239.335 59.5177L237.242 58.5284L239.262 56.3579C241.68 53.7612 242.946 51.1596 243.643 47.3585C244.568 42.3098 243.562 35.4702 241.413 32.2081C240.433 30.7191 240.071 30.9213 239.253 33.4176C238.687 35.1467 238.687 35.226 239.279 37.5156C240.133 40.8246 240.097 46.2229 239.202 48.7314C238.348 51.1285 236.874 53.306 235.315 54.4779L234.051 55.4274L233.35 54.744C232.284 53.7053 230.513 49.9832 229.99 47.6814C229.638 46.132 229.522 43.5889 229.519 37.3207L229.514 29.0133L230.526 29.1838C231.493 29.3465 231.584 29.2695 232.536 27.4858L233.535 25.6173L231.386 25.1105C230.204 24.8319 228.383 24.6037 227.34 24.6037H225.443L225.547 36.2393ZM281.161 43.4614C280.98 43.9471 280.093 46.4023 279.19 48.9182L277.55 53.4922H278.706C279.787 53.4922 279.886 53.4084 280.233 52.2082L280.604 50.9243H282.554H284.504L284.875 52.2082C285.215 53.3846 285.336 53.4922 286.317 53.4922C286.906 53.4922 287.388 53.4318 287.388 53.3583C287.388 53.2071 285.322 47.2279 284.301 44.4244C283.662 42.6683 283.578 42.5787 282.561 42.5787C281.681 42.5787 281.433 42.7351 281.161 43.4614ZM295.528 43.2066C294.807 43.663 294.481 44.1567 294.322 45.0323C293.96 47.0356 294.649 47.8352 297.987 49.2863C299.493 49.9408 299.866 50.6929 299.086 51.5021C298.639 51.9659 296.706 52.007 295.613 51.5756C294.913 51.2999 294.8 51.3567 294.627 52.0721C294.38 53.0916 294.396 53.1054 296.25 53.47C299.282 54.0664 301.624 52.7552 301.624 50.4605C301.624 48.9522 300.76 48.0207 298.491 47.0802C296.472 46.2437 295.96 45.5549 296.684 44.6497C297.11 44.1179 298.736 44.037 299.885 44.4902C300.544 44.7502 300.694 44.6931 300.872 44.1134C301.178 43.1119 300.262 42.5784 298.238 42.58C297.079 42.5807 296.195 42.7851 295.528 43.2066ZM309.928 43.0519C308.756 43.7372 308.274 45.415 308.843 46.8276C309.19 47.6898 309.637 48.0724 310.947 48.6312C313.412 49.6824 313.539 49.7887 313.539 50.7988C313.539 51.6645 313.449 51.7335 312.192 51.8269C311.452 51.8821 310.455 51.7862 309.978 51.6135C309.22 51.3397 309.088 51.3872 308.936 51.9893C308.703 52.9131 309.036 53.1911 310.778 53.5288C313.701 54.095 315.86 52.7729 315.86 50.4156C315.86 48.7715 314.868 47.743 312.492 46.9245C309.381 45.8528 310.57 43.5289 313.776 44.4164C314.87 44.7194 315.002 44.6879 315.233 44.0652C315.374 43.6845 315.361 43.2435 315.203 43.0705C314.71 42.5284 310.846 42.5149 309.928 43.0519ZM325.786 43.1411C324.093 44.036 323.478 45.1771 323.343 47.676C323.259 49.2064 323.364 50.1437 323.69 50.7953C325.602 54.607 330.883 54.6188 332.782 50.8158C333.484 49.4086 333.424 46.4212 332.665 45.0747C331.339 42.7193 328.233 41.8466 325.786 43.1411ZM343.095 43.1549C339.952 44.9367 339.732 50.6069 342.722 52.726C343.913 53.5699 345.669 53.8751 347.22 53.5079C348.66 53.167 348.682 53.1458 348.476 52.3302C348.331 51.7537 348.121 51.694 346.674 51.8186C343.908 52.0564 342.542 50.4977 342.87 47.4789C343.149 44.9117 345.676 43.3603 347.725 44.4982C348.194 44.7582 348.327 44.668 348.494 43.9789C348.605 43.5202 348.612 43.058 348.509 42.9517C348.407 42.8452 347.39 42.7094 346.25 42.6497C344.649 42.5656 343.932 42.6805 343.095 43.1549ZM356.093 48.0355V53.4922H357.176H358.26V48.0355V42.5787H357.176H356.093V48.0355ZM369.247 42.9604C369.165 43.1918 368.33 45.5299 367.392 48.1562C366.454 50.7821 365.687 53.0572 365.687 53.2116C365.687 53.366 366.153 53.4922 366.721 53.4922C367.66 53.4922 367.79 53.3734 368.126 52.2082L368.497 50.9243H370.448H372.398L372.769 52.2082C373.109 53.3846 373.229 53.4922 374.21 53.4922C374.799 53.4922 375.281 53.3766 375.281 53.2357C375.281 53.0948 374.461 50.6752 373.459 47.8592L371.637 42.7392L370.517 42.6394C369.801 42.5759 369.342 42.6917 369.247 42.9604ZM380.599 43.4614C380.689 44.2697 380.821 44.3525 382.167 44.4421L383.637 44.54V49.0161V53.4922H384.72H385.804V48.9984V44.5046H387.196C388.537 44.5046 388.589 44.469 388.589 43.5417V42.5787H384.545H380.501L380.599 43.4614ZM395.707 48.0355V53.4922H396.79H397.874V48.0355V42.5787H396.79H395.707V48.0355ZM408.089 43.1742C406.434 44.0947 405.535 46.1169 405.678 48.5936C405.866 51.8385 407.627 53.584 410.713 53.584C412.87 53.584 414.316 52.6669 415.223 50.724C416.492 48.0056 415.496 44.2151 413.219 43.0942C411.806 42.399 409.416 42.4362 408.089 43.1742ZM423.561 48.0355V53.4922H424.489H425.418L425.421 49.5601L425.425 45.6281L426.134 46.912C426.524 47.6182 427.58 49.3878 428.481 50.8441C430.006 53.3092 430.192 53.4922 431.173 53.4922H432.226V48.0355V42.5787H431.111H429.995L430.105 46.4305C430.165 48.549 430.197 50.2823 430.176 50.2823C430.155 50.2823 429.064 48.549 427.751 46.4305C425.599 42.9559 425.277 42.5787 424.463 42.5787H423.561V48.0355ZM329.984 44.9428C330.714 45.5931 330.854 45.9982 330.962 47.7674C331.077 49.641 331.012 49.9283 330.256 50.8601C329.158 52.2134 327.482 52.2988 326.359 51.0588C325.713 50.3449 325.609 49.9199 325.609 47.9819C325.609 45.9157 325.679 45.6701 326.477 44.9582C327.58 43.9741 328.892 43.9683 329.984 44.9428ZM412.349 44.8269C413.303 45.7478 413.736 47.684 413.369 49.3778C413.008 51.0456 412.103 51.8873 410.669 51.8873C408.679 51.8873 407.425 49.6025 407.918 46.8761C408.351 44.4838 410.815 43.3443 412.349 44.8269ZM282.664 49.2594C281.992 49.3146 281.374 49.2876 281.289 49.1997C281.145 49.0504 282.003 45.9959 282.379 45.3235C282.472 45.1559 282.849 45.9504 283.217 47.0889L283.885 49.1589L282.664 49.2594ZM370.558 49.2594C369.886 49.3146 369.282 49.3033 369.216 49.2346C369.15 49.166 369.397 48.1844 369.765 47.0536L370.435 44.997L371.107 47.078L371.779 49.1589L370.558 49.2594Z" fill="white"/>
</svg>
